<svg width="16" height="17" viewBox="0 0 16 17" fill="none" xmlns="http://www.w3.org/2000/svg">
<path fill-rule="evenodd" clip-rule="evenodd" d="M3.167 5.49951H4.334C4.632 5.49951 4.744 5.63051 4.856 5.95351C5.427 7.61551 6.389 9.06751 6.785 9.06751C6.933 9.06751 7.001 8.99951 7.001 8.62351V6.90451C6.974 6.41551 6.803 6.20451 6.677 6.04851C6.599 5.95051 6.538 5.87551 6.538 5.76851C6.538 5.63751 6.649 5.49951 6.834 5.49951H8.668C8.916 5.49951 9.002 5.63251 9.002 5.92851V8.23951C9.002 8.48651 9.109 8.57351 9.183 8.57351C9.332 8.57351 9.455 8.48651 9.727 8.21551C10.568 7.27551 11.161 5.82951 11.161 5.82951C11.235 5.65651 11.372 5.49951 11.669 5.49951H12.836C13.189 5.49951 13.263 5.68151 13.189 5.92851C13.04 6.60851 11.619 8.61051 11.619 8.61051C11.495 8.80851 11.446 8.90751 11.619 9.12951C11.68 9.21551 11.81 9.34251 11.959 9.48751C12.112 9.63851 12.284 9.80751 12.422 9.97051C12.924 10.5335 13.301 11.0095 13.407 11.3375C13.503 11.6665 13.336 11.8335 13.002 11.8335H11.836C11.523 11.8335 11.366 11.6575 11.026 11.2795C10.881 11.1195 10.704 10.9225 10.469 10.6865C9.777 10.0205 9.48 9.93351 9.307 9.93351C9.072 9.93351 9.002 9.99951 9.002 10.3335V11.3795C9.002 11.6665 8.91 11.8335 8.168 11.8335C6.932 11.8335 5.573 11.0825 4.609 9.69851C3.162 7.67151 2.767 6.13951 2.767 5.82951C2.767 5.65651 2.834 5.49951 3.167 5.49951ZM1.123 1.62251C0 2.74551 0 4.55251 0 8.16651V8.83351C0 12.4465 0 14.2545 1.123 15.3775C2.246 16.4995 4.053 16.4995 7.667 16.4995H8.334C11.948 16.4995 13.755 16.4995 14.877 15.3775C16 14.2545 16 12.4465 16 8.83351V8.16651C16 4.55251 16 2.74551 14.877 1.62251C13.755 0.499512 11.948 0.499512 8.334 0.499512H7.667C4.053 0.499512 2.246 0.499512 1.123 1.62251Z" fill="white"/>
</svg>
