<svg width="273" height="313" viewBox="0 0 273 313" fill="none" xmlns="http://www.w3.org/2000/svg">
<path fill-rule="evenodd" clip-rule="evenodd" d="M207.857 159.263L203.421 156.684L252.165 108.541C252.32 108.388 252.358 108.151 252.258 107.957C252.213 107.87 252.144 107.803 252.064 107.755L252.065 107.753L252.047 107.743C252.042 107.74 252.037 107.736 252.03 107.734L242.381 102.122L270.727 97.1669L207.857 159.263ZM236.63 213.396L175.801 215.292L170.899 212.441L172.13 207.705L223.005 206.121C223.179 206.116 223.337 206.021 223.423 205.869C223.51 205.719 223.511 205.534 223.428 205.381L199.121 160.931L202.683 157.412L207.565 160.251L236.63 213.396ZM152.922 301.311L143.347 274.56L152.64 279.964C152.728 280.029 152.836 280.064 152.955 280.053C153.174 280.043 153.36 279.892 153.415 279.68L170.637 213.447L175.094 216.038L152.922 301.311ZM113.059 263.236L118.567 257.193L119.961 260.833C120.003 260.942 120.081 261.029 120.177 261.086L120.176 261.087L125.203 264.01L120.404 282.468L113.059 263.236ZM69.5258 309.509L77.8399 284.426L82.4398 287.101H82.4408C82.5199 287.146 82.6059 287.168 82.6918 287.168C82.8288 287.168 82.9639 287.112 83.0609 287.005L109.851 257.64L111.904 263.017L69.5258 309.509ZM68.0308 310.841L36.5898 292.56L55.4778 271.423L76.9568 283.912L68.0308 310.841ZM55.7758 231.254L61.6378 230.266L49.7118 267.617C49.6408 267.841 49.7348 268.082 49.9378 268.201H49.9368L54.5948 270.91L36.9878 290.614L55.7758 231.254ZM34.4808 233.831L48.1538 220.326L53.1548 223.234L53.1588 223.226C53.2568 223.284 53.3698 223.316 53.4888 223.294L57.4588 222.624L55.0068 230.37L34.4808 233.831ZM64.8588 152.825L69.2938 155.403L20.5508 203.546C20.3958 203.7 20.3578 203.937 20.4588 204.132C20.5038 204.218 20.5768 204.279 20.6568 204.326L20.6508 204.334L30.0378 209.792L2.00385 214.906L64.8588 152.825ZM36.5518 99.5359L49.4498 106.992L73.5999 151.15L70.0318 154.674L65.1518 151.837L36.5518 99.5359ZM96.9108 96.7979L101.816 99.6509L100.586 104.382L49.7158 105.964C49.7048 105.964 49.6959 105.972 49.6848 105.973L37.0258 98.6569L96.9108 96.7979ZM119.795 10.7609L129.622 37.6779L120.078 32.1289C119.99 32.0619 119.881 32.0249 119.758 32.0359C119.54 32.0459 119.353 32.1979 119.298 32.4089L102.078 98.6449L97.6179 96.0509L119.795 10.7609ZM159.618 48.5429L154.043 54.6159L152.752 51.2549C152.709 51.1449 152.63 51.0629 152.534 51.0069L152.536 51.0019L147.509 48.0789L152.311 29.6129L159.618 48.5429ZM203.198 2.55291L194.781 27.9699L190.178 25.2929V25.2939C189.976 25.1769 189.718 25.2139 189.558 25.3879L162.954 54.4089L160.774 48.7619L203.198 2.55291ZM204.686 1.24191L236.125 19.5229L216.992 40.8849L195.665 28.4839L204.686 1.24191ZM217.161 80.6989L211.172 81.6829L222.906 44.7769C222.977 44.5529 222.883 44.3119 222.681 44.1939V44.1929L217.876 41.3979L235.74 21.4519L217.161 80.6989ZM238.244 78.2479L224.563 91.7609L219.562 88.8539L219.557 88.8609C219.46 88.8029 219.347 88.7729 219.227 88.7929L215.472 89.4259L217.931 81.5849L238.244 78.2479ZM225.458 92.2829L239.792 78.1249L270.78 96.1439L241.04 101.343L225.458 92.2829ZM210.961 106.601L224.72 93.0109L239.509 101.611L210.961 106.601ZM200.895 116.543L209.712 107.834L240.851 102.39L250.376 107.929L200.895 116.543ZM176.25 140.885L199.648 117.775L250.326 108.952L202.525 156.163L176.25 140.885ZM198.422 160.215L180.966 150.065L176.732 142.324L201.788 156.892L198.422 160.215ZM171.868 206.712L155.203 197.023L204.971 195.471C205.145 195.465 205.303 195.37 205.39 195.219C205.476 195.069 205.478 194.883 205.394 194.731L181.895 151.763L198.129 161.202L222.16 205.147L171.868 206.712ZM144.932 197.342L153.313 197.081L171.161 207.459L170.001 211.919L144.932 197.342ZM152.851 277.877L135.195 229.556L143.488 197.66L169.74 212.925L152.851 277.877ZM131.847 242.431L134.752 231.258L151.986 278.426L142.824 273.098L131.847 242.431ZM123.153 252.161L130.332 244.285L125.464 263.004L121.007 260.412L123.153 252.161ZM121.707 253.747L120.336 259.018L119.321 256.366L121.707 253.747ZM116.865 249.951L125.018 241.015L122.247 251.67L118.92 255.32L116.865 249.951ZM116.111 250.778L118.167 256.147L112.659 262.189L110.606 256.813L116.111 250.778ZM101.241 232.291L104.856 221.384L115.711 249.733L110.206 255.767L101.241 232.291ZM100.743 233.792L109.451 256.594L83.9048 284.596L100.743 233.792ZM96.1998 225.853L77.2778 282.942L56.1588 270.661L96.1998 225.853ZM88.1319 225.798L96.1098 224.452L55.2758 270.148L50.9688 267.644L88.1319 225.798ZM86.5588 226.064L51.3828 265.67L62.7468 230.078L86.5588 226.064ZM65.5629 221.257L95.2798 216.244L87.6178 224.87L63.0888 229.007L65.5629 221.257ZM64.4538 221.445L61.9799 229.195L56.1148 230.183L58.5668 222.438L64.4538 221.445ZM60.4228 216.574L68.5818 208.515L64.7959 220.373L58.9058 221.367L60.4228 216.574ZM58.8968 218.081L57.7968 221.554L54.8828 222.045L58.8968 218.081ZM72.1248 195.245L63.5928 203.671L31.5528 209.516L22.3318 204.154L72.1248 195.245ZM96.4669 171.202L73.3808 194.004L22.3998 203.126L70.1898 155.923L96.4669 171.202ZM74.2989 151.866L91.7429 162.008L95.9838 169.764L70.9268 155.195L74.2989 151.866ZM67.3139 117.317C67.3188 117.327 67.3158 117.34 67.3218 117.351L90.8148 160.311L74.5909 150.878L51.1168 107.954L67.3139 117.317ZM100.848 105.374L117.516 115.067L68.0718 116.601L51.3148 106.915L100.848 105.374ZM127.78 114.748L119.406 115.008L101.556 104.628L102.714 100.172L127.78 114.748ZM119.862 34.2149L137.485 82.5889C137.488 82.5969 137.495 82.6009 137.498 82.6079L129.224 114.43L102.976 99.1669L119.862 34.2149ZM141.045 68.9679L137.939 80.9119L120.724 33.6619L130.159 39.1479L141.045 68.9679ZM149.716 59.3279L142.557 67.1259L147.248 49.0849L151.705 51.6769L149.716 59.3279ZM151.157 57.7589L152.377 53.0689L153.287 55.4389L151.157 57.7589ZM155.863 62.1429L147.703 71.0439L150.621 59.8209L153.688 56.4809L155.863 62.1429ZM156.619 61.3199L154.443 55.6579L160.019 49.5839L162.199 55.2319L156.619 61.3199ZM171.572 79.5149L169.951 84.4029L164.238 81.1489L157.02 62.3629L162.601 56.2739L171.572 79.5149ZM172.067 78.0209L163.356 55.4499L188.718 27.7839L172.067 78.0209ZM176.637 85.9419L195.343 29.4539L216.311 41.6459L176.637 85.9419ZM184.716 86.0289L176.727 87.3419L217.194 42.1589L221.648 44.7489L184.716 86.0289ZM186.288 85.7709L221.246 46.6989L210.065 81.8649L186.288 85.7709ZM207.218 90.8179L187.152 94.1999L181.585 91.0289L185.226 86.9579L209.725 82.9339L207.218 90.8179ZM208.327 90.6299L210.832 82.7509L216.826 81.7669L214.366 89.6129L208.327 90.6299ZM212.615 95.1969L204.248 103.46L207.986 91.7019L214.03 90.6829L212.615 95.1969ZM214.132 93.6969L215.136 90.4969L217.833 90.0419L214.132 93.6969ZM203.596 105.509L204.105 105.006L208.575 107.552L200.37 115.656L203.596 105.509ZM140.999 188.763L190.502 187.222C190.676 187.216 190.834 187.121 190.92 186.97C191.007 186.82 191.008 186.634 190.925 186.482L167.298 143.275L180.224 150.79L204.126 194.496L153.569 196.073L140.999 188.763ZM129.615 227.309L133.911 229.783L127.003 237.355L129.615 227.309ZM107.174 214.388L128.716 226.791L125.557 238.939L116.465 248.907L105.352 219.885L107.174 214.388ZM103.432 214.869L106.111 214.417L104.788 218.409L103.432 214.869ZM100.999 211.311L102.062 214.086L97.9118 214.786L100.999 211.311ZM79.0368 198.189L100.395 210.486L96.3388 215.052L65.9048 220.186L70.1148 207.001L79.0368 198.189ZM73.8769 195.218L78.1378 197.671L70.7709 204.948L73.8769 195.218ZM81.8629 125.726L105.423 168.805L92.4859 161.283L68.9649 118.271L81.8629 125.726ZM131.718 123.325L82.3609 124.859L69.7149 117.55L119.15 116.017L131.718 123.325ZM142.439 68.7329L149.18 61.3899L146.648 71.1299L142.439 68.7329ZM141.917 69.5869L146.387 72.1319L146.261 72.6169L139.097 80.4319L141.917 69.5869ZM148.181 72.0029L156.264 63.1859L162.866 80.3669L148.181 72.0029ZM143.102 84.7709L138.748 82.2939L145.724 74.6839L143.102 84.7709ZM167.388 92.1359L165.589 97.5639L144.002 85.2829L147.166 73.1109L147.488 72.7589L163.432 81.8409L167.388 92.1359ZM167.884 90.6389L164.804 82.6219L169.63 85.3709L167.884 90.6389ZM177.254 95.8679L180.902 91.7899L185.593 94.4619L177.254 95.8679ZM170.708 97.9859L174.607 97.3279L171.702 100.575L170.708 97.9859ZM166.61 97.6619L167.954 93.6089L169.335 97.2029L166.61 97.6619ZM169.701 98.1559L170.561 100.392L167.331 98.5549L169.701 98.1559ZM105.61 213.488L103.067 213.917L102.137 211.489L105.61 213.488ZM165.647 141.584C165.488 141.741 165.452 141.984 165.56 142.18L189.657 186.247L139.221 187.818C139 187.825 138.809 187.977 138.753 188.192L128.977 225.787L79.7748 197.459L107.074 170.495C107.233 170.339 107.269 170.096 107.161 169.9L83.0648 125.838L133.495 124.27C133.717 124.263 133.908 124.111 133.963 123.896L143.741 86.2849L193.167 114.404L165.647 141.584ZM202.066 107.02L199.025 116.585L194.809 114.187L202.066 107.02ZM188.526 94.9819L206.878 91.8889L203.231 103.358L188.526 94.9819ZM202.921 104.332L202.718 104.97L193.906 113.673L172.314 101.39L176.186 97.0619L186.967 95.2449L202.921 104.332ZM204.844 104.277L211.976 97.2329L209.021 106.656L204.844 104.277ZM176.853 88.3329L183.653 87.2159L180.696 90.5229L176.853 88.3329ZM170.837 84.9079L172.138 80.9829L174.446 86.9629L170.837 84.9079ZM180.014 91.2839L175.675 96.1339L170.341 97.0339L168.45 92.1109L170.517 85.8759L180.014 91.2839ZM129.558 115.694C129.779 115.687 129.97 115.534 130.026 115.32L138.37 83.2299L142.841 85.7729L133.162 123.006L121.04 115.958L129.558 115.694ZM97.6348 171.454C97.7938 171.298 97.8298 171.055 97.7218 170.859L93.4138 162.98L105.906 170.243L78.8759 196.942L74.4249 194.378L97.6348 171.454ZM72.4828 196.297L69.2378 206.461L61.0698 214.529L64.2738 204.405L72.4828 196.297ZM97.8998 223.544C97.8888 223.515 97.8638 223.497 97.8478 223.472C97.8338 223.448 97.8308 223.419 97.8119 223.398C97.8018 223.386 97.7859 223.38 97.7748 223.369C97.7528 223.348 97.7289 223.332 97.7019 223.315C97.6609 223.287 97.6179 223.267 97.5708 223.253C97.5538 223.247 97.5408 223.234 97.5238 223.231C97.5098 223.229 97.4968 223.236 97.4828 223.234C97.4659 223.232 97.4499 223.223 97.4328 223.223C97.4048 223.223 97.3779 223.225 97.3499 223.23L89.1908 224.606L96.8529 215.979L102.426 215.038L104.291 219.909L100.676 230.815L97.8998 223.544ZM130.872 242.208L123.693 250.084L126.463 239.43L133.639 231.564L130.872 242.208ZM143.154 196.397C142.933 196.404 142.742 196.556 142.686 196.771L134.339 228.874L129.876 226.305L139.555 189.081L151.679 196.131L143.154 196.397ZM175.081 140.633C174.922 140.789 174.887 141.033 174.994 141.229L179.295 149.093L166.815 141.836L194.07 114.917L198.542 117.461L175.081 140.633ZM219.389 89.9109L223.825 92.4909L210.332 105.817L213.494 95.7339L219.389 89.9109ZM190.208 26.4679L194.46 28.9409L175.372 86.5829L172.633 79.4899L190.208 26.4679ZM130.974 38.4639L120.66 10.2109L151.639 28.2249L146.612 47.5579L130.974 38.4639ZM146.351 48.5629L141.487 67.2649L131.51 39.9339L146.351 48.5629ZM32.8838 210.289L62.3308 204.918L47.9958 219.076L32.8838 210.289ZM1.92285 215.937L31.3688 210.566L47.2578 219.805L32.9238 233.962L1.92285 215.937ZM53.3269 222.176L48.8918 219.597L62.7478 205.911L59.5438 216.036L53.3269 222.176ZM82.4109 285.926L78.1618 283.455L97.4659 225.212L100.179 232.316L82.4109 285.926ZM142.005 273.781L152.065 301.885L121.074 283.865L126.101 264.532L142.005 273.781ZM126.362 263.527L131.4 244.15L141.482 272.318L126.362 263.527ZM272.661 96.1699C272.616 96.0829 272.546 96.0169 272.466 95.9699L272.468 95.9669L272.444 95.9529C272.441 95.9519 272.44 95.9499 272.437 95.9499L239.964 77.0679L239.961 77.0739C239.863 77.0159 239.751 76.9859 239.632 77.0069L218.266 80.5169L237.385 19.5479C237.455 19.3259 237.36 19.0839 237.159 18.9669V18.9659L204.656 0.0669089V0.0679089C204.454 -0.0500911 204.196 -0.0110911 204.037 0.160909L160.373 47.7219L152.685 27.8029C152.643 27.6949 152.565 27.6069 152.47 27.5499L120.01 8.67591C119.922 8.61091 119.814 8.57391 119.691 8.58391C119.473 8.59391 119.287 8.74491 119.232 8.95691L96.6488 95.8049L35.2418 97.7109C35.0678 97.7169 34.9099 97.8119 34.8228 97.9629C34.7369 98.1139 34.7348 98.2989 34.8188 98.4509L64.1609 152.109L0.148848 215.332C-0.0071523 215.487 -0.0451523 215.724 0.0568477 215.918C0.101848 216.005 0.174848 216.064 0.253848 216.11L0.248848 216.12L32.7518 235.02L32.7528 235.017C32.8518 235.076 32.9668 235.103 33.0858 235.08L54.6678 231.441L35.3318 292.533C35.2608 292.757 35.3558 292.997 35.5578 293.116L35.5568 293.117L68.0598 312.016L68.0608 312.015C68.1388 312.061 68.2259 312.083 68.3119 312.083C68.4479 312.083 68.5838 312.027 68.6808 311.92L112.304 264.064L120.027 284.285C120.073 284.406 120.168 284.503 120.278 284.56L152.692 303.408C152.782 303.482 152.894 303.525 153.02 303.505C153.239 303.495 153.426 303.344 153.482 303.132L176.063 216.284L237.475 214.37C237.649 214.365 237.807 214.27 237.893 214.118C237.98 213.968 237.981 213.783 237.898 213.63L208.556 159.979L272.568 96.7549C272.723 96.6019 272.761 96.3649 272.661 96.1699Z" fill="#231F20"/>
</svg>
