<svg width="193" height="39" viewBox="0 0 193 39" fill="none" xmlns="http://www.w3.org/2000/svg">
<path fill-rule="evenodd" clip-rule="evenodd" d="M186.314 38.5604H192.741V0H186.314V38.5604ZM179.888 0L163.656 38.5604H170.083L186.314 0H179.888ZM140.995 0L157.227 38.5604H163.653L147.422 0H140.995ZM134.568 38.5604H140.995V0H134.568V38.5604Z" fill="#231F20"/>
<path fill-rule="evenodd" clip-rule="evenodd" d="M67.2655 -3.05176e-05L60.5593 5.43773L53.8531 -3.05176e-05H36.0879V5.43773H57.3461V38.5603H63.7728V5.43773H85.0306V-3.05176e-05H67.2655Z" fill="#231F20"/>
<path fill-rule="evenodd" clip-rule="evenodd" d="M0 -3.05176e-05V5.43773H12.2801V33.1226H0V38.5603H30.6503V33.1226H18.3706V5.43773H30.6503V-3.05176e-05H0Z" fill="#231F20"/>
<path fill-rule="evenodd" clip-rule="evenodd" d="M90.4688 -3.05176e-05V38.5603H129.13V33.1226H96.8957V21.999V5.43773H129.13V-3.05176e-05H90.4688ZM103.641 16.5613L96.8957 21.999H126.841V16.5613H103.641Z" fill="#231F20"/>
</svg>
