<svg width="221" height="318" fill="none" xmlns="http://www.w3.org/2000/svg"><mask id="a" maskUnits="userSpaceOnUse" x="0" y="0" width="221" height="318"><path fill-rule="evenodd" clip-rule="evenodd" d="M.853.51h219.58v316.54H.853V.51z" fill="#fff"/></mask><g mask="url(#a)"><path fill-rule="evenodd" clip-rule="evenodd" d="M83.716 300.419l4.745 2.76.01-.017a.493.493 0 00.24.084.496.496 0 00.25-.067l120.358-69.528a.499.499 0 00.186-.675l-3.047-5.461 12.479 7.256-139.728 80.716 4.507-15.068zM18.985 262.78l12.963 7.538-4.858 15.836L2.886 272.08l16.099-9.3zM142.041 2.094l-4.949 15.324-4.746-2.76a.496.496 0 00-.431-.034c-.025.01-.042.03-.064.043l-.006-.009L11.488 84.186a.499.499 0 00-.198.651l2.145 4.398L2.35 82.79 142.042 2.094zm1.16-.339l24.211 14.078-16.577 9.576-12.858-7.476 5.224-16.178zm36.439 160.592l-4.209-2.448L209.05 59.721a.5.5 0 00-.223-.592l-6.007-3.493 15.683-9.06-38.862 115.771zm-6.726 5.05l2.192-6.53 4.442 2.583 39.059 69.972-13.106-7.62-32.587-58.405zm21.896 52.188l-31.837-57.033 9.028 5.259 31.806 57.005-8.997-5.231zm-3.485 2.739l3.114-1.798 10.324 6.003 2.979 5.34-16.417-9.545zm-94.363 54.511l93.365-53.935 17.743 10.318-118.52 68.467 7.412-24.85zM70.97 291.852l17.243-9.961-5.093 17.025-12.15-7.064zm-.998.576l12.854 7.474-4.755 15.896-24.198-14.07 16.099-9.3zm-11.626-6.761l10.63 6.182-15.248 8.807 4.617-14.989zm-14.863-8.642l-15.25 8.809 4.601-15 10.648 6.191zm-4.662-25.704l6.19-3.576-7.579 24.606-4.297-2.498 5.686-18.532zm-1.27.734l-5.303 17.282-12.265-7.133 17.567-10.149zm-24.323 6.221L40.47 242.54l-2.489 8.112-18.993 10.973-5.758-3.349zm24.474-100.773l4.294 2.444-30.242 98.181a.5.5 0 00.226.58l6.008 3.493L2.74 271.01 37.7 157.503zm6.583-4.982l-1.986 6.447-4.51-2.566L2.522 84.048l11.7 6.803 30.063 61.67zM26.463 97.969l29.477 60.262-10.738-6.111-29.428-60.367 10.688 6.216zm3.018-2.456l-2.635 1.521-11.86-6.896-2.079-4.262 16.575 9.637zm93.699-54.127l-92.7 53.551L12.736 84.62l118.491-68.45-8.047 25.216zm7.588-4.384l-6.301 3.64 7.916-24.806 4.396 2.556-6.011 18.61zm1.291-.746l5.604-17.35 12.175 7.08-17.779 10.27zm24.535-6.343l-27.644 15.97 2.651-8.208 19.233-11.11 5.76 3.348zm5.816 2.226l-10.578-6.15 15.684-9.06-5.106 15.21zm25.494 14.823l-4.57-2.657-6.008-3.493 15.684-9.06-5.106 15.21zm-5.411 19.261l5.968-17.78 12.363 7.19-18.331 10.59zm-3.26 9.713l2.779-8.28 19.809-11.444 5.758 3.35-28.346 16.374zm-24.204 72.1l23.723-70.668 28.93-16.713-33.133 98.731-19.52-11.35zm-7.541 4.337l2.117-6.305 4.452 2.56 6.263 11.221-12.832-7.476zm32.522 58.606l-31.83-57.046 13.097 7.63 31.837 57.036-13.104-7.62zm3.935 7.053l-2.98-5.341 12.479 7.256-3.113 1.798-6.386-3.713zm-84.16 49.344l83.789-48.402 5.759 3.347-91.954 53.119 2.405-8.064zm-7.48 4.32l6.218-3.591-2.406 8.065-6.225 3.596 2.413-8.07zm-1.263.73l-2.413 8.069-18.656 10.778-5.758-3.349 26.828-15.498zm-26.675-6.311l6.137-3.545-7.579 24.604-4.277-2.487 5.718-18.572zm-1.272.736l-5.334 17.32-12.285-7.143 17.62-10.177zm2.933-9.525l-2.5 8.119-19.047 11.003-5.76-3.347 27.307-15.775zm8.138-26.424l-7.706 25.019-27.883 16.108 7.706-25.019 27.883-16.108zm-24.948 6.584L77.1 221.379l-2.5 8.12-27.883 16.107 2.5-8.12zm-1.274.736l-2.5 8.119-6.194 3.578 2.49-8.113 6.204-3.584zm15.213-66.233l4.416 2.513-19.195 62.315-6.209 3.586 20.989-68.414zm-.89-.507L40.9 241.138l-27.816 16.068 29.804-96.752 19.38 11.028zm7.535-4.212l-1.928 6.253-4.63-2.635-4.981-10.185 11.539 6.567zm-30.063-61.581l29.495 60.107-11.75-6.688-29.465-60.235 11.72 6.816zm-2.89-5.89l2.096 4.27-11.102-6.456 2.634-1.52 6.372 3.705zm83.266-48.814L37.233 98.863l-5.758-3.348 91.253-52.714-2.613 8.184zm1.289-.744l2.611-8.183 6.294-3.636-2.651 8.206-6.254 3.613zm-2.37 23.09l-6.129 3.54 8.047-25.215 6.248-3.609-8.166 25.284zm29.064-16.789l-27.772 16.043 8.166-25.284 28.202-16.29-8.596 25.531zm8.9-5.143l5.969-17.78 12.365 7.19-18.334 10.59zm-3.26 9.713l2.78-8.28 19.81-11.444 5.758 3.348-28.348 16.376zm17.937 19.19l2.779-8.28 6.25-3.61-2.78 8.28-6.249 3.61zm-42.146 53.07l-.03-.052 11.452-34.116 28.936-16.716-20.842 62.105-19.516-11.221zm7.045 12.643l-6.1-10.946 18.247 10.491-2.114 6.299-10.033-5.844zm32.743 58.746l-31.788-57.033 8.955 5.216 31.831 57.049-8.998-5.232zm-3.484 2.74l3.113-1.799 10.325 6.004 2.979 5.341-16.417-9.546zm-58.22 33.633l57.222-33.057 17.743 10.318-82.377 47.586 7.412-24.847zm-7.455 4.306l6.194-3.578-7.413 24.848-6.215 3.591 7.434-24.861zm-1.261.729L91.46 271.03l-27.39 15.823 7.708-25.018 27.118-15.666zm-24.187 6.142l27.017-15.607-2.413 8.069-27.104 15.658 2.5-8.12zm-1.271.735l-2.501 8.119-6.138 3.545 2.5-8.119 6.139-3.545zm8.139-26.425l-7.707 25.02-6.137 3.546 7.706-25.02 6.138-3.546zm2.933-9.523l-2.5 8.12-6.14 3.546 2.502-8.12 6.138-3.546zm4.344-30.486l4.295 2.445-8.206 26.636-6.139 3.547 10.05-32.628zm-.89-.506l-10.433 33.869-27.881 16.107 18.812-61.073 19.502 11.097zm-5.614-11.695l5.04 10.218-18.626-10.6 1.927-6.253 11.66 6.635zM51.96 112.793l29.603 60.019-10.784-6.136-29.48-60.081 10.66 6.198zm3.015-2.456l-2.633 1.521-11.837-6.882-2.096-4.272 16.566 9.633zm.998-.577L38.23 99.442 119.663 52.4l-8.047 25.215-55.645 32.145zm52.583-22.546l-45.829 26.473-5.758-3.348 54.198-31.308-2.611 8.183zm7.371-4.259l-6.084 3.515 2.611-8.183 6.122-3.536-2.649 8.204zm28.899-16.694L117.218 82.21l2.649-8.205 27.748-16.028-2.79 8.285zm1.31-.757l2.79-8.285 6.285-3.63-2.779 8.278-6.296 3.637zm-2.75 23.311l-6.328 3.655 8.596-25.532 6.296-3.638-8.564 25.515zm1.308-.756l8.565-25.515 28.931-16.713-8.562 25.513-28.934 16.715zm-.481 1.432l28.935-16.715-2.78 8.281-28.935 16.716 2.78-8.282zm-10.429 12.699l2.79-8.287 6.331-3.656-2.78 8.281-6.341 3.662zm-5.177 30.652l-4.308-2.477 9.003-26.742 6.343-3.663-11.038 32.882zm-6.7 4.628l2.067-6.139 4.816 2.77 6.09 10.926-12.973-7.557zm32.606 58.682l-31.882-57.104 13.204 7.692 31.789 57.036-13.111-7.624zm3.938 7.056l-2.982-5.343 12.482 7.259-3.112 1.798-6.388-3.714zm-48.015 28.466l47.645-27.525 5.759 3.349-55.81 32.24 2.406-8.064zm-1.262.728l-2.405 8.065-6.192 3.577 2.413-8.069 6.184-3.573zm1.67-22.686l6.159-3.558-7.412 24.849-6.183 3.572 7.436-24.863zm-1.263.729l-7.435 24.863-27.001 15.597 7.706-25.018 26.73-15.442zm2.83-9.464l-2.413 8.069-26.715 15.432 2.502-8.12 26.626-15.381zm-.166-1.058l-26.028 15.035 7.824-25.394 18.204 10.359zm-15.977-17.592l10.867 6.184 4.958 10.171-17.75-10.102 1.925-6.253zM65.26 120.527l29.543 59.82-11.691-6.654-29.59-59.992 11.738 6.826zm-2.917-5.906l2.115 4.282-11.121-6.465 2.633-1.522 6.373 3.705zm18.124 10.538l-2.633 1.522-11.81-6.867-2.116-4.283 16.56 9.628zm19.59-11.315l-18.591 10.739-17.743-10.317 44.381-25.638-8.047 25.216zm7.244-4.185l-5.957 3.442 8.047-25.216 6.076-3.51-8.166 25.284zm1.292-.746l8.166-25.285 27.584-15.934-8.597 25.533-27.153 15.686zm-3.109 9.626l2.651-8.207 27.129-15.672-2.79 8.287-26.99 15.592zm.126 1.081l26.381-15.24-8.577 25.477-17.804-10.237zm6.121 11.921l-5.825-10.597 17.183 9.879-2.065 6.133-9.293-5.415zm32.093 58.398l-31.158-56.696 8.266 4.816 31.884 57.108-8.992-5.228zm-3.485 2.738l3.113-1.798 10.32 6 2.982 5.343-16.415-9.545zm-.998.576l17.743 10.317-46.233 26.708 7.413-24.848 21.077-12.177zm-18.256 2.717l11.502-6.644 5.759 3.349-19.666 11.36 2.405-8.065zm-1.262.728l-2.405 8.066-6.158 3.557 2.413-8.069 6.15-3.554zm-.166-1.057l-6.193 3.578-4.79-9.828 10.983 6.25zm-22.665-72.197l-8.772 5.067-5.758-3.349 17.142-9.902-2.612 8.184zm1.287-.744l2.614-8.184 5.95-3.438-2.651 8.207-5.912 3.415zm.129 1.08l6.008-3.47 5.635 10.253-11.644-6.783zm.29 1.327l12.289 7.158 31.792 57.848-3.435 1.985-6.383-3.711-34.263-63.28zm22.178 69.83l-32.004-65.649 8.344-4.819 34.701 64.09-11.041 6.378zm-42.39-67.478l2.977-1.72 6.374 3.705 31.667 64.959-11.606-6.604-29.411-60.34zm17.868 53.771l-29.53-59.793 10.627 6.178 28.908 59.308-10.004-5.693zm-7.413 4.281l-5.04-10.218 11.477 6.531-1.927 6.254-4.51-2.567zm65.206-37.985l-4.218-2.424 21.266-63.369 6.249-3.61-23.297 69.403zm33.432-99.595l-6.394 19.047-6.25 3.611 8.427-25.11 4.217 2.452zm-25.494-14.824l-6.394 19.048-6.284 3.63 8.461-25.13 4.217 2.452zM45.115 153.222l11.604 6.603 4.983 10.185-18.512-10.535 1.925-6.253zm126.978 13.484l-10.075-5.869-6.266-11.224 18.473 10.742-2.132 6.351zM218.401 45.48l-16.578 9.576-13.037-7.58 5.397-16.078 24.218 14.082zm-25.494-14.824l-16.577 9.576-13.038-7.58 5.397-16.078 24.218 14.082zM28.379 286.904l16.1-9.299 12.979 7.546-4.874 15.827-24.205-14.074zm60.034 15.09l-4.403-2.56 5.465-18.273 6.226-3.596-7.287 24.429zm131.957-67.467l-39.907-71.491L219.871 45.64a.497.497 0 00-.157-.546c-.021-.018-.051-.017-.074-.03l.009-.016-25.494-14.823-25.494-14.824-25.49-14.82a.5.5 0 00-.504-.003L1.103 82.358a.495.495 0 00-.25.43c0 .077.025.15.057.217l-.007.003 35.968 73.794-35.46 115.13.016.005c-.015.046-.038.09-.038.141 0 .179.095.344.249.434l50.986 29.647 25.494 14.823.01-.016a.493.493 0 00.24.084.5.5 0 00.25-.068l141.566-81.778a.5.5 0 00.186-.677z" fill="#231F20"/></g></svg>