<svg width="240" height="309" fill="none" xmlns="http://www.w3.org/2000/svg"><path fill-rule="evenodd" clip-rule="evenodd" d="M148.816 162.111l-1.608-.921 4.298-7.449 80.474-46.488 5.881 3.42-89.045 51.438zm34.508 20.903l-4.381 7.587-34.449-19.719-.015-4.963.128-.222 4.212-2.433 34.505 19.75zm35.019 30.139l-38.533-22.056 4.381-7.586 38.532 22.056-4.38 7.586zm-74.496 82.794l-5.942-3.455-.325-114.616 4.25-7.366 1.665.954.352 124.483zm-5.939-2.297l5.445 3.166-5.428 3.135-.017-6.301zm-38.884-15.743l5.924-3.422 31.958 18.582.019 6.878-37.901-22.038zm5.317-42.427l.108 38.139-5.924 3.423-.09-31.328 5.906-10.234zm-42.888 72.327l-4.05-2.349 40.006-69.404.027 9.393-35.983 62.36zm-5.563-90.86l7.954-4.596-41.892 72.541-3.946-2.289 37.884-65.656zm-19.824 10.297l-.02-6.805 25.01-14.448-5.898 10.224-19.092 11.029zm-28.35-22.695l27.33 15.89.02 6.799L1.86 207.93l5.855-3.381zm-6.373-3.707l5.378 3.127-5.36 3.096-.018-6.223zm94.53-55.191l-5.9 10.225L7.72 203.392l-5.881-3.42 94.036-54.321zm-75.412-55.86l38.51 22.045-4.337 7.614L16.08 97.381l4.38-7.59zm76.686 53.654l-.147.254-41.498-23.753 4.338-7.613 37.279 21.338.028 9.774zm.63-130.023l5.944 3.456.325 114.609-2.168 3.757-3.761-2.154-.34-119.669zm5.941 2.295l-5.445-3.165 5.427-3.135.018 6.3zm38.883 15.745l-5.924 3.42L104.72 16.3l-.02-6.878 37.901 22.038zm-5.316 42.418l-.108-38.131 5.924-3.422.088 31.32-5.904 10.233zm42.887-72.327l4.05 2.35-40.006 69.274-.026-9.264 35.982-62.36zm5.418 91.117l-8.29 4.788 42.147-73.117 4.173 2.42-38.03 65.909zm18.044-9.27l.019 6.805-23.23 13.421 5.9-10.226 17.311-10zm-24.21 21.957l24.729-14.285 26.831 15.601-78.479 45.336 26.919-46.652zm-34.971 51.304l-.006-2.208 24.967-43.313 8.278-4.783-26.919 46.652-6.32 3.652zm.009 2.957l-.005-1.805 5.317-3.072-3.435 5.952-1.877-1.075zm2.246 2.438l1.107.633-2.209 1.276 1.102-1.909zm-2.235 1.871l-.009-3.155 1.376.787-1.367 2.368zm-.989 3.716l.008 2.666-1.162-.665 1.154-2.001zm-3.443.692l2.835-1.638-1.414 2.451-1.421-.813zm-2.484 1.434l1.483-.855 1.922 1.099-3.388 5.871-.017-6.115zm-33.248 54.317l.026 9.404-5.905 10.232-.026-9.393 5.905-10.243zm-6.024-31.63l5.924-3.422.094 33.057-5.905 10.245-.113-39.88zm-.998.577l.116 41.028-40.865 70.895-33.721-19.562 42.76-74.044 31.71-18.317zm-24.803 6.356l24.78-14.314.02 6.806-30.707 17.737 5.907-10.229zm-1.732 1.001l-5.907 10.229-7.956 4.596 5.9-10.225 7.963-4.6zm26.418-48.672l-5.465 3.158 5.447-9.441.018 6.283zm.97-9.998l-.02-7.476 3.259 1.865-3.238 5.611zm5.924-4.074l.006 2.115-5.466 3.159 3.643-6.314 1.817 1.04zm-.004-1.153l-1.314-.753 1.306-2.263.008 3.016zm33.257-51.367l-.026-9.255 5.904-10.233.026 9.263-5.904 10.225zm6.023 31.95l-5.922 3.422-.095-33.383 5.904-10.225.113 40.186zm.999-.576l-.117-41.332 40.865-70.763 33.495 19.434-43.014 74.62-31.229 18.041zm.026 9.11l23.317-13.47-23.241 40.319-.076-26.849zm-3.022 32.224l-3.826-2.191-.074-26.035 5.924-3.422.079 27.999-2.103 3.649zm1.193-.066l.916-1.589.003 1.059-.919.53zm.353.95l.569-.328.002.655-.571-.327zm-5.341 8.19l-.001-.486 3.991-6.923.35-.202 1.574.902.015 4.996-4.439 2.565-1.49-.852zm.004 1.154l.484.277-.483.278-.001-.555zm-1 .086l.003 1.046-.908.524.905-1.57zm-32.365 12.928l.019 6.806-5.924 3.421-.02-6.805 5.925-3.422zm-5.482-29.09l-.532.922-.002-.613.534-.309zm2.673-4.629l-1.672 2.897-1.538.888-.016-5.632 3.226 1.847zm2.7-4.675l-2.2 3.809-3.73-2.135v-.019l5.925-3.423.005 1.768zm.99-3.497l-.003-.966.841.482-.838.484zm.545.84l-.54.935-.002-.622.542-.313zm2.732-2.733l27.983-48.454.091 32.237-28.074 16.217zm6.497 5.372l21.603-12.479.07 24.885-21.673-12.406zm-9.763.285l2.049-3.549 5.709 3.268-7.747 4.475-.011-4.194zm-2.022 5.369l-1.619.936.808-1.401.811.465zm-.311-1.33l1.338-2.316.008 3.048-.033.019-1.313-.751zm28.359 17.384l-25.923 14.974-.085-29.86 26.008 14.886zm5.428-3.136l-4.427 2.557-27.012-15.461v-.036l8.746-5.053 22.678 12.98.015 5.013zm1.002.576l2.271-1.313-2.264 3.929-.007-2.616zm-1.067 4.478l-3.358-1.922 3.426-1.98.01 3.767-.078.135zm4.336-7.522l-3.273 1.891-.011-3.862 3.324 1.902-.04.069zm-3.384-37.118l5.924-3.422.019 6.806-5.923 3.422-.02-6.806zm-.979 7.383l-22.603 13.057-5.927-3.393 28.511-16.47.019 6.806zm-39.18 54.889l-23.776 13.735 23.699-41.037.077 27.302zm.918-29.025l2.259-3.912 3.623-2.093.035.02.087 31.011-5.924 3.422-.08-28.448zm34.74 17.552l-27.621 47.917-.09-31.909 27.711-16.008zm-27.715 14.855l-.019-6.804 26.923-15.554 3.861 2.21-2.053 3.562-28.712 16.586zm71.098-88.115l8.289-4.788-5.9 10.225-8.279 4.783 5.89-10.22zm-7.623 11.221l-24.317 14.047-.02-6.805 30.229-17.462-5.892 10.22zm-63.638 19.352l-.318-112.303 31.454 18.29.114 39.855-31.25 54.158zm31.254-52.168l.027 9.254-29.562 51.19-1.698-.972-.015-5.312 31.248-54.16zm-45.59 79.013l6.468-3.736.005 1.76-25.425 44.027-7.965 4.6 26.918-46.651zm-55.16 62.966l-26.83-15.602 80.26-46.364-26.92 46.652-26.51 15.314zm101.04-39.973l.318 112.309-31.454-18.29-.113-39.863 31.249-54.156zm-31.255 52.165l-.026-9.406 29.346-50.91 1.908-1.103.021 7.263-31.249 54.156zm126.653-125.668l-27.33-15.891-.019-6.8 33.204 19.309-5.855 3.382zm6.372 3.705l-5.377-3.126 5.359-3.096.018 6.222zm1.003.871l-.022-7.958h-.001a.5.5 0 00-.249-.432l-34.704-20.18a.501.501 0 00-.501 0l-16.559 9.566 37.413-64.838a.499.499 0 00-.182-.683L180.241.437a.518.518 0 00-.38-.051.506.506 0 00-.304.234l-35.373 61.303-.086-30.462a.498.498 0 00-.249-.431l-39.4-22.91a.499.499 0 00-.501 0l-6.923 3.998a.5.5 0 00-.25.434l.34 119.965-76.59-43.841a.502.502 0 00-.682.183l-4.88 8.458a.502.502 0 00.185.684l80.978 46.349L.59 199.539a.5.5 0 00-.25.431v.002l.023 7.958a.504.504 0 00.248.432l34.704 20.18a.503.503 0 00.502 0l18.34-10.595-37.268 64.589a.5.5 0 00.182.682l44.312 25.705a.5.5 0 00.684-.182l35.373-61.303.086 30.469a.505.505 0 00.249.432l39.401 22.909a.497.497 0 00.501 0l6.922-3.998a.498.498 0 00.25-.434l-.353-124.779 73.782 42.231a.494.494 0 00.681-.183l4.879-8.453a.493.493 0 00.05-.379.495.495 0 00-.234-.304l-73.835-42.264 89.288-51.579a.5.5 0 00.25-.432l-.001-.001h.001z" fill="#231F20"/></svg>