<svg width="273" height="313" fill="none" xmlns="http://www.w3.org/2000/svg"><path fill-rule="evenodd" clip-rule="evenodd" d="M207.857 159.263l-4.436-2.579 48.744-48.143a.5.5 0 00-.101-.786l.001-.002-.018-.01c-.005-.003-.01-.007-.017-.009l-9.649-5.612 28.346-4.955-62.87 62.096zm28.773 54.133l-60.829 1.896-4.902-2.851 1.231-4.736 50.875-1.584a.499.499 0 00.423-.74l-24.307-44.45 3.562-3.519 4.882 2.839 29.065 53.145zm-83.708 87.915l-9.575-26.751 9.293 5.404c.088.065.196.1.315.089a.498.498 0 00.46-.373l17.222-66.233 4.457 2.591-22.172 85.273zm-39.863-38.075l5.508-6.043 1.394 3.64c.042.109.12.196.216.253l-.001.001 5.027 2.923-4.799 18.458-7.345-19.232zm-43.533 46.273l8.314-25.083 4.6 2.675a.506.506 0 00.62-.096l26.791-29.365 2.053 5.377-42.378 46.492zm-1.495 1.332L36.59 292.56l18.888-21.137 21.479 12.489-8.926 26.929zm-12.255-79.587l5.862-.988-11.926 37.351a.5.5 0 00.226.584h-.001l4.658 2.709-17.607 19.704 18.788-59.36zm-21.295 2.577l13.673-13.505 5 2.908.005-.008c.098.058.21.09.33.068l3.97-.67-2.452 7.746-20.526 3.461zm30.378-81.006l4.435 2.578-48.743 48.143a.501.501 0 00-.092.586.499.499 0 00.198.194l-.006.008 9.387 5.458-28.034 5.114 62.855-62.081zm-28.307-53.29l12.898 7.457L73.6 151.15l-3.568 3.524-4.88-2.837-28.6-52.301zm60.359-2.737l4.905 2.853-1.23 4.731-50.87 1.582c-.011 0-.02.008-.031.009l-12.66-7.316 59.886-1.86zm22.884-86.037l9.827 26.917-9.544-5.55a.453.453 0 00-.32-.092.5.5 0 00-.46.373l-17.22 66.236-4.46-2.594 22.177-85.29zm39.823 37.782l-5.575 6.073-1.291-3.361a.496.496 0 00-.218-.248l.002-.005-5.027-2.923 4.802-18.466 7.307 18.93zm43.58-45.99l-8.417 25.417-4.603-2.677a.501.501 0 00-.62.095l-26.604 29.02-2.18-5.646 42.424-46.21zm1.488-1.311l31.439 18.28-19.133 21.363-21.327-12.401 9.021-27.242zm12.475 79.457l-5.989.984 11.734-36.906a.5.5 0 00-.225-.583v-.001l-4.805-2.795 17.864-19.946-18.579 59.247zm21.083-2.451L224.563 91.76l-5.001-2.907-.005.007a.482.482 0 00-.33-.068l-3.755.633 2.459-7.841 20.313-3.337zm-12.786 14.035l14.334-14.158 30.988 18.019-29.74 5.199-15.582-9.06zM210.961 106.6l13.759-13.59 14.789 8.6-28.548 4.99zm-10.066 9.942l8.817-8.709 31.139-5.444 9.525 5.539-49.481 8.614zm-24.645 24.342l23.398-23.11 50.678-8.823-47.801 47.211-26.275-15.278zm22.172 19.33l-17.456-10.15-4.234-7.741 25.056 14.568-3.366 3.323zm-26.554 46.497l-16.665-9.689 49.768-1.552a.499.499 0 00.423-.74l-23.499-42.968 16.234 9.439 24.031 43.945-50.292 1.565zm-26.936-9.37l8.381-.261 17.848 10.378-1.16 4.46-25.069-14.577zm7.919 80.535l-17.656-48.321 8.293-31.896 26.252 15.265-16.889 64.952zm-21.004-35.446l2.905-11.173 17.234 47.168-9.162-5.328-10.977-30.667zm-8.694 9.73l7.179-7.876-4.868 18.719-4.457-2.592 2.146-8.251zm-1.446 1.586l-1.371 5.271-1.015-2.652 2.386-2.619zm-4.842-3.796l8.153-8.936-2.771 10.655-3.327 3.65-2.055-5.369zm-.754.827l2.056 5.369-5.508 6.042-2.053-5.376 5.505-6.035zm-14.87-18.487l3.615-10.907 10.855 28.349-5.505 6.034-8.965-23.476zm-.498 1.501l8.708 22.802-25.546 28.002 16.838-50.804zm-4.543-7.939l-18.922 57.089-21.12-12.281L96.2 225.853zm-8.068-.055l7.978-1.346-40.834 45.696-4.307-2.504 37.163-41.846zm-1.573.266L51.383 265.67l11.364-35.592 23.812-4.014zm-20.996-4.807l29.717-5.013-7.662 8.626-24.53 4.137 2.475-7.75zm-1.11.188l-2.473 7.75-5.865.988 2.452-7.745 5.887-.993zm-4.03-4.871l8.159-8.059-3.786 11.858-5.89.994 1.517-4.793zm-1.526 1.507l-1.1 3.473-2.914.491 4.014-3.964zm13.228-22.836l-8.532 8.426-32.04 5.845-9.221-5.362 49.793-8.909zm24.342-24.043L73.38 194.004l-50.98 9.122 47.79-47.203 26.277 15.279zm-22.168-19.336l17.444 10.142 4.24 7.756-25.056-14.569 3.372-3.329zm-6.985-34.549c.005.01.002.023.008.034l23.493 42.96-16.224-9.433-23.474-42.924 16.197 9.363zm33.534-11.943l16.668 9.693-49.444 1.534-16.757-9.686 49.533-1.541zm26.932 9.374l-8.374.26-17.85-10.38 1.158-4.456 25.066 14.576zm-7.918-80.533l17.623 48.374c.003.008.01.012.013.019l-8.274 31.822-26.248-15.263 16.886-64.952zm21.183 34.753l-3.106 11.944-17.215-47.25 9.435 5.486 10.886 29.82zm8.671-9.64l-7.159 7.798 4.691-18.041 4.457 2.592-1.989 7.65zm1.441-1.57l1.22-4.69.91 2.37-2.13 2.32zm4.706 4.385l-8.16 8.9 2.918-11.222 3.067-3.34 2.175 5.662zm.756-.823l-2.176-5.662 5.576-6.074 2.18 5.648-5.58 6.088zm14.953 18.195l-1.621 4.888-5.713-3.254-7.218-18.786 5.581-6.09 8.971 23.242zm.495-1.494l-8.711-22.571 25.362-27.666-16.651 50.237zm4.57 7.92l18.706-56.487 20.968 12.192-39.674 44.296zm8.079.088l-7.989 1.313 40.467-45.183 4.454 2.59-36.932 41.28zm1.572-.258l34.958-39.072-11.181 35.166-23.777 3.906zm20.93 5.047L187.152 94.2l-5.567-3.171 3.641-4.071 24.499-4.024-2.507 7.884zm1.109-.188l2.505-7.88 5.994-.983-2.46 7.846-6.039 1.017zm4.288 4.567l-8.367 8.263 3.738-11.758 6.044-1.02-1.415 4.515zm1.517-1.5l1.004-3.2 2.697-.455-3.701 3.655zm-10.536 11.812l.509-.503 4.47 2.546-8.205 8.104 3.226-10.147zm-62.597 83.254l49.503-1.541a.5.5 0 00.423-.74l-23.627-43.207 12.926 7.515 23.902 43.706-50.557 1.577-12.57-7.31zm-11.384 38.546l4.296 2.474-6.908 7.572 2.612-10.046zm-22.441-12.921l21.542 12.403-3.159 12.148-9.092 9.968-11.113-29.022 1.822-5.497zm-3.742.481l2.679-.452-1.323 3.992-1.356-3.54zm-2.433-3.558l1.063 2.775-4.15.7 3.087-3.475zm-21.962-13.122l21.358 12.297-4.056 4.566-30.434 5.134L70.115 207l8.922-8.812zm-5.16-2.971l4.26 2.453-7.366 7.277 3.106-9.73zm7.986-69.492l23.56 43.079-12.937-7.522-23.521-43.012 12.898 7.455zm49.855-2.401l-49.357 1.534-12.646-7.309 49.435-1.533 12.568 7.308zm10.721-54.592l6.741-7.343-2.532 9.74-4.209-2.397zm-.522.854l4.47 2.545-.126.485-7.164 7.815 2.82-10.845zm6.264 2.416l8.083-8.817 6.602 17.18-14.685-8.363zm-5.079 12.768l-4.354-2.477 6.976-7.61-2.622 10.087zm24.286 7.365l-1.799 5.428-21.587-12.281 3.164-12.172.322-.352 15.944 9.082 3.956 10.295zm.496-1.497l-3.08-8.017 4.826 2.749-1.746 5.268zm9.37 5.229l3.648-4.078 4.691 2.672-8.339 1.406zm-6.546 2.118l3.899-.658-2.905 3.247-.994-2.59zm-4.098-.324l1.344-4.053 1.381 3.594-2.725.459zm3.091.494l.86 2.236-3.23-1.837 2.37-.4zM105.61 213.488l-2.543.429-.93-2.428 3.473 1.999zm60.037-71.904a.499.499 0 00-.087.596l24.097 44.067-50.436 1.571a.5.5 0 00-.468.374l-9.776 37.595-49.202-28.328 27.299-26.964a.497.497 0 00.087-.595l-24.096-44.062 50.43-1.568a.499.499 0 00.468-.374l9.778-37.611 49.426 28.119-27.52 27.18zm36.419-34.564l-3.041 9.565-4.216-2.398 7.257-7.167zm-13.54-12.038l18.352-3.093-3.647 11.469-14.705-8.376zm14.395 9.35l-.203.638-8.812 8.703-21.592-12.283 3.872-4.328 10.781-1.817 15.954 9.087zm1.923-.055l7.132-7.044-2.955 9.423-4.177-2.379zm-27.991-15.944l6.8-1.117-2.957 3.307-3.843-2.19zm-6.016-3.425l1.301-3.925 2.308 5.98-3.609-2.055zm9.177 6.376l-4.339 4.85-5.334.9-1.891-4.923 2.067-6.235 9.497 5.408zm-50.456 24.41a.502.502 0 00.468-.374l8.344-32.09 4.471 2.543-9.679 37.233-12.122-7.048 8.518-.264zm-31.923 55.76a.497.497 0 00.087-.595l-4.308-7.879 12.492 7.263-27.03 26.699-4.451-2.564 23.21-22.924zm-25.152 24.843l-3.245 10.164-8.168 8.068 3.204-10.124 8.209-8.108zM97.9 223.544c-.011-.029-.036-.047-.052-.072-.014-.024-.017-.053-.036-.074-.01-.012-.026-.018-.037-.029a.444.444 0 00-.073-.054.462.462 0 00-.131-.062c-.017-.006-.03-.019-.047-.022-.014-.002-.027.005-.041.003-.017-.002-.033-.011-.05-.011a.464.464 0 00-.083.007l-8.16 1.376 7.663-8.627 5.573-.941 1.865 4.871-3.615 10.906-2.776-7.271zm32.972 18.664l-7.179 7.876 2.77-10.654 7.176-7.866-2.767 10.644zm12.282-45.811a.5.5 0 00-.468.374l-8.347 32.103-4.463-2.569 9.679-37.224 12.124 7.05-8.525.266zm31.927-55.764a.5.5 0 00-.087.596l4.301 7.864-12.48-7.257 27.255-26.919 4.472 2.544-23.461 23.172zm44.308-50.722l4.436 2.58-13.493 13.326 3.162-10.083 5.895-5.823zm-29.181-63.443l4.252 2.473-19.088 57.642-2.739-7.093 17.575-53.022zm-59.234 11.996L120.66 10.21l30.979 18.014-5.027 19.333-15.638-9.094zm15.377 10.099l-4.864 18.702-9.977-27.331 14.841 8.629zM32.884 210.289l29.447-5.371-14.335 14.158-15.112-8.787zm-30.961 5.648l29.446-5.371 15.889 9.239-14.334 14.157-31.001-18.025zm51.404 6.239l-4.435-2.579 13.856-13.686-3.204 10.125-6.217 6.14zm29.084 63.75l-4.25-2.471 19.305-58.243 2.713 7.104-17.768 53.61zm59.594-12.145l10.06 28.104-30.991-18.02 5.027-19.333 15.904 9.249zm-15.643-10.254l5.038-19.377 10.082 28.168-15.12-8.791zM272.661 96.17a.5.5 0 00-.195-.2l.002-.003-.024-.014c-.003-.001-.004-.003-.007-.003l-32.473-18.882-.003.006a.476.476 0 00-.329-.067l-21.366 3.51 19.119-60.97a.5.5 0 00-.226-.58v-.001L204.656.066v.002a.5.5 0 00-.619.093l-43.664 47.56-7.688-19.918a.514.514 0 00-.215-.253L120.01 8.676a.464.464 0 00-.319-.092.498.498 0 00-.459.373L96.649 95.805 35.242 97.71a.5.5 0 00-.423.74l29.342 53.658L.149 215.332a.498.498 0 00-.092.586.485.485 0 00.197.192l-.005.01 32.503 18.9v-.003a.47.47 0 00.334.063l21.582-3.639-19.336 61.092a.5.5 0 00.226.583l-.001.001 32.503 18.899v-.001a.494.494 0 00.62-.095l43.624-47.856 7.723 20.221a.528.528 0 00.251.275l32.414 18.848c.09.074.202.117.328.097a.501.501 0 00.462-.373l22.581-86.848 61.412-1.914a.499.499 0 00.423-.74l-29.342-53.651 64.012-63.224a.501.501 0 00.093-.585z" fill="#231F20"/></svg>