<svg width="215" height="305" fill="none" xmlns="http://www.w3.org/2000/svg"><path fill-rule="evenodd" clip-rule="evenodd" d="M208.894 117.043l-21.034 36.453-5.843-3.397a.503.503 0 00-.685.182l-23.161 40.171-16.56-9.513 16.935-29.316 5.869 3.372a.502.502 0 00.682-.183l27.321-47.349 16.476 9.58zm-16.838 38.894l-3.332-1.938 21.036-36.457 3.347 1.912-21.051 36.483zm16.838 10.947l-44.44 77.017-22.844-13.123 16.933-29.311 5.872 3.373a.502.502 0 00.682-.184l27.322-47.351 16.475 9.579zm-44.413 86.68l-27.056-15.542 3.685-6.377 23.278 13.372a.504.504 0 00.682-.184l44.69-77.45 3.347 1.912-48.626 84.269zm-89.587 49.995L47.95 287.891l3.67-6.359 23.18 13.48a.502.502 0 00.684-.183l39.532-68.527 3.214 1.845-43.335 75.412zM33.65 271.538l13.34 7.303 3.764 2.189-3.673 6.367-17.12-9.467 3.69-6.392zM5.832 255.379l26.947 15.668-3.688 6.39-26.946-15.668 3.687-6.39zm62.288-4.444l-16.867 29.228-3.332-1.936 16.867-29.23 3.332 1.938zM47.95 238.05l3.668-6.358 16.473 9.58-3.668 6.357-16.474-9.579zm-14.3-16.352l13.34 7.303 3.763 2.189-3.673 6.367-17.12-9.467 3.69-6.392zM5.831 205.539l26.947 15.667-3.688 6.391-26.946-15.668 3.687-6.39zm62.29-4.448l-16.869 29.232-3.332-1.937 16.87-29.232 3.331 1.937zM47.95 188.205l3.67-6.357 16.474 9.58-3.668 6.357-16.476-9.58zm-14.3-16.351l13.34 7.302 3.764 2.189-3.673 6.367-17.12-9.467 3.69-6.391zm-27.817-16.16l26.947 15.668-3.688 6.39-26.946-15.668 3.687-6.39zm62.286-4.441l-16.865 29.226-3.332-1.937 16.865-29.227 3.332 1.938zM47.95 138.369l3.67-6.357 16.471 9.578-3.669 6.357-16.472-9.578zm-14.3-16.351l13.34 7.302 3.764 2.189-3.673 6.367-17.12-9.467 3.69-6.391zm-27.817-16.16l26.947 15.668-3.688 6.39-26.946-15.668 3.687-6.39zM91.31 53.515l27.02 15.521-3.681 6.381-23.246-13.354a.499.499 0 00-.682.183l-39.467 68.397-3.332-1.937 43.388-75.19zm90.64-51.82l3.347 1.947-44.552 77.118-3.29-1.89L181.95 1.695zm10.108 54.558l-3.331-1.938 21.034-36.454 3.347 1.912-21.05 36.48zM208.894 67.2l-21.035 36.455-5.842-3.396a.503.503 0 00-.685.182l-23.159 40.168-16.562-9.515 16.931-29.308 5.873 3.374a.501.501 0 00.682-.183l27.324-47.355 16.473 9.578zm-46.163 77.181l1.657.952a.502.502 0 00.682-.184l23.153-40.125 3.331 1.937-27.073 46.919-5.435-3.122 3.685-6.377zm-.366-1.364l-3.324-1.91 22.908-39.731 3.347 1.946-22.931 39.695zm24.994-38.495l-22.905 39.695-1.223-.702 22.93-39.69 1.198.697zm-32.496 43.833l3.678-6.38 3.323 1.908-3.684 6.377-3.317-1.905zm-17.409 30.196l16.91-29.329 3.315 1.905-16.935 29.314-3.29-1.89zm-.895 9.134l-21.044-12.089 3.681-6.38 21.048 12.091-3.685 6.378zm17.435 10.015l-16.569-9.517 3.685-6.378 16.562 9.513-3.678 6.382zm-16.54 30.692l16.908-29.327 3.315 1.905-16.933 29.311-3.29-1.889zm-18.258-9.335l21.048 12.091-3.685 6.376-21.044-12.088 3.681-6.379zm-21.134-3.647l3.67-6.386 16.597 9.535-3.68 6.38-16.587-9.529zm-23.235 39.426a.502.502 0 00.684-.184l22.053-38.375 16.585 9.528-39.28 68.091-22.75-13.229 16.865-29.228 5.843 3.397zm-1.675-10.621l1.647.958a.502.502 0 00.684-.183l17.936-31.093 3.278 1.882-21.803 37.94-5.41-3.147 3.668-6.357zm-.864-.503l-3.669 6.358-3.33-1.937 3.667-6.358 3.332 1.937zm20.265-30.313l-17.685 30.657-1.216-.707L91.336 212.7l1.217.699zm-1.244-10.362l5.424 3.116-3.68 6.379-1.65-.948a.498.498 0 00-.683.184l-17.932 31.078-3.332-1.938 21.853-37.871zm9.556 5.489l-3.67 6.386-3.276-1.882 3.681-6.38 3.265 1.876zm.498-.868l-3.263-1.874 16.915-29.321 3.214 1.846-16.866 29.349zm52.131-9.092l-16.909 29.327-34.355-19.736 16.866-29.35 34.398 19.759zm-78.667 6.425a.503.503 0 00.38.051.504.504 0 00.304-.234l22.051-38.371 16.586 9.528-16.915 29.321-5.859-3.365a.498.498 0 00-.68.184l-22.104 38.3-16.473-9.579 16.867-29.232 5.842 3.396zm-1.673-10.62l1.645.957a.503.503 0 00.38.051.501.501 0 00.304-.233l17.934-31.09 3.278 1.883-21.8 37.935-5.41-3.145 3.67-6.358zm-.864-.502l-3.669 6.358-3.33-1.938 3.666-6.357 3.333 1.937zm20.261-30.31L74.868 194.21l-1.214-.706 17.682-30.645 1.215.699zm-1.242-10.363l5.423 3.116-3.68 6.379-1.65-.947a.5.5 0 00-.682.184l-17.93 31.074-3.333-1.937 21.852-37.869zm-16.482 1.959a.503.503 0 00.38.051.504.504 0 00.304-.234l22.055-38.378 16.583 9.526-16.917 29.325-5.858-3.365a.498.498 0 00-.68.184l-22.1 38.299-16.476-9.581 16.864-29.225 5.845 3.398zm-1.677-10.622l1.65.959a.503.503 0 00.38.051.501.501 0 00.303-.233l17.938-31.097 3.277 1.883-21.804 37.942-5.413-3.147 3.67-6.358zm-.864-.503l-3.669 6.358-3.33-1.937 3.667-6.357 3.332 1.936zm20.268-30.314l-17.686 30.659-1.218-.708 17.686-30.651 1.218.7zm-1.245-10.364l5.426 3.117-3.68 6.38-1.653-.95a.5.5 0 00-.682.184l-17.934 31.081-3.332-1.937 21.855-37.875zm5.926 2.25l-5.86-3.367a.5.5 0 00-.682.184L68.59 140.724l-16.47-9.578 39.217-67.967 22.812 13.104-16.913 29.318zm20.994-26.973l-16.864 29.346-3.263-1.875 16.913-29.319 3.214 1.848zm18.33 9.375l-21.044-12.089 3.68-6.38 21.049 12.092-3.685 6.377zm21.111 3.634l-3.678 6.381-16.567-9.517 3.685-6.377 16.56 9.513zm24.347-41.223a.501.501 0 00-.685.183L158.17 90.771l-16.559-9.514L186.16 4.144l22.734 13.218-21.032 36.451-5.845-3.399zM164.454 94.38l-1.227-.704L186.16 53.98l1.202.7-22.908 39.7zm-1.727.162l1.661.954a.503.503 0 00.682-.183l23.156-40.13 3.332 1.936-27.077 46.924-5.439-3.124 3.685-6.377zm-3.689-3.273l22.911-39.738 3.347 1.947-22.935 39.7-3.323-1.909zm-4.178 7.247l3.679-6.38 3.321 1.908-3.684 6.377-3.316-1.905zm-17.406 30.189l16.906-29.322 3.315 1.904-16.931 29.309-3.29-1.891zm16.038-29.82l-16.907 29.321-34.353-19.734 16.864-29.346 34.396 19.758zm-56.295 16.343l-3.276-1.882 3.681-6.38 3.265 1.875-3.67 6.387zm4.537-5.889l16.596 9.534-3.681 6.38-16.585-9.527 3.67-6.387zm34.825 28.5l-21.044-12.089 3.681-6.38 21.048 12.092-3.685 6.377zm.866.498l3.685-6.377 16.564 9.515-3.678 6.38-16.571-9.518zm-35.695 20.845l16.599 9.535-3.681 6.38-16.588-9.529 3.67-6.386zm-3.632-3.241l16.917-29.324 3.214 1.847-16.868 29.352-3.263-1.875zm2.765 2.743l-3.67 6.385-3.276-1.88 3.681-6.38 3.265 1.875zm1.365-.37l16.868-29.352 34.4 19.76-16.911 29.33-34.357-19.738zm59.635 35.411l-3.685 6.378-3.317-1.906 3.679-6.381 3.323 1.909zm.5-.866l-3.323-1.909 22.909-39.734 3.347 1.946-22.933 39.697zm25.861-37.994l3.332 1.937-27.075 46.922-5.437-3.123 3.685-6.378 1.659.953a.502.502 0 00.682-.184l23.154-40.127zm-23.77 39.196l-1.225-.704 22.931-39.692 1.2.697-22.906 39.699zm27.6-87.967l-3.331-1.937 21.037-36.459 3.346 1.911-21.052 36.485zm22.169-36.42a.497.497 0 00-.184-.685l-4.215-2.406h-.001l-16.902-9.828 21.302-36.917a.497.497 0 00-.184-.685l-4.215-2.407h-.001L182.017.578a.515.515 0 00-.38-.05.509.509 0 00-.305.233l-44.747 77.61-45.21-25.973a.499.499 0 00-.682.184l-43.642 75.633-13.34-7.303-27.81-16.171a.525.525 0 00-.38-.051.506.506 0 00-.304.234l-4.186 7.256a.5.5 0 00.181.682l27.81 16.171.001-.002.008.007 17.986 9.945 16.904 9.831-16.87 29.237-13.34-7.303-27.81-16.171a.515.515 0 00-.38-.051.506.506 0 00-.304.234l-4.186 7.256a.5.5 0 00.181.682l27.81 16.171.001-.002.008.007 17.986 9.945 16.908 9.832-16.874 29.244-13.34-7.303-27.81-16.17a.5.5 0 00-.684.183l-4.186 7.255a.5.5 0 00.181.683l27.81 16.171.001-.002.008.007 17.986 9.946 16.906 9.83-16.872 29.24-13.34-7.302-27.81-16.171a.501.501 0 00-.684.182L1.031 261.7a.5.5 0 00.181.683l27.81 16.171.001-.002.008.007 17.986 9.946 27.81 16.171a.502.502 0 00.684-.184l43.585-75.846 45.319 26.034a.503.503 0 00.682-.184l49.126-85.137a.5.5 0 00-.184-.684l-4.215-2.407h-.001l-16.904-9.829 21.304-36.92a.498.498 0 00-.184-.685l-4.215-2.407h-.001l-16.905-9.83 21.305-36.923z" fill="#231F20"/></svg>