<svg width="193" height="39" fill="none" xmlns="http://www.w3.org/2000/svg"><path fill-rule="evenodd" clip-rule="evenodd" d="M186.314 38.56h6.427V0h-6.427v38.56zM179.888 0l-16.232 38.56h6.427L186.314 0h-6.426zm-38.893 0l16.232 38.56h6.426L147.422 0h-6.427zm-6.427 38.56h6.427V0h-6.427v38.56zM67.266 0l-6.707 5.438L53.853 0H36.088v5.438h21.258V38.56h6.427V5.438H85.03V0H67.265zM0 0v5.438h12.28v27.685H0v5.437h30.65v-5.437H18.37V5.438h12.28V0H0zm90.469 0v38.56h38.661v-5.437H96.896V5.438h32.234V0H90.469zm13.172 16.561L96.896 22h29.945v-5.438h-23.2z" fill="#231F20"/></svg>