<svg width="16" height="17" fill="none" xmlns="http://www.w3.org/2000/svg"><path fill-rule="evenodd" clip-rule="evenodd" d="M12.232 3.27a.956.956 0 00-.95.96c0 .53.425.96.95.96.526 0 .952-.43.952-.96a.956.956 0 00-.952-.96z" fill="#fff"/><path fill-rule="evenodd" clip-rule="evenodd" d="M15.881 5.202c-.039-.852-.173-1.434-.369-1.942a3.915 3.915 0 00-.914-1.417A3.887 3.887 0 0013.193.92C12.69.723 12.113.587 11.27.549 10.423.51 10.153.5 8 .5 5.846.5 5.576.51 4.73.549 3.886.587 3.31.723 2.806.92a3.887 3.887 0 00-1.405.923A3.915 3.915 0 00.487 3.26c-.196.508-.33 1.09-.369 1.942C.08 6.055.07 6.328.07 8.5c0 2.173.01 2.445.048 3.299.04.851.173 1.432.37 1.941.201.526.472.973.913 1.417.441.445.883.719 1.405.923.504.198 1.08.333 1.924.372.846.039 1.116.048 3.27.048 2.153 0 2.423-.009 3.27-.048.843-.039 1.42-.174 1.923-.372a3.874 3.874 0 001.405-.923c.441-.444.712-.891.914-1.417.196-.509.33-1.09.37-1.941.038-.854.047-1.126.047-3.299 0-2.172-.009-2.445-.048-3.298zm-1.427 6.531c-.035.78-.165 1.203-.273 1.486a2.501 2.501 0 01-.593.92 2.455 2.455 0 01-.912.597c-.28.111-.7.24-1.472.276-.836.039-1.087.046-3.205.046-2.117 0-2.368-.007-3.203-.046-.774-.036-1.193-.165-1.473-.276a2.444 2.444 0 01-.91-.597 2.49 2.49 0 01-.595-.92c-.108-.283-.238-.706-.273-1.486-.038-.844-.046-1.096-.046-3.233 0-2.136.008-2.389.046-3.233.035-.78.165-1.204.273-1.485.144-.374.316-.64.594-.92.277-.28.541-.453.911-.598.28-.11.7-.24 1.473-.276.835-.038 1.086-.047 3.203-.047 2.118 0 2.368.009 3.205.047.772.036 1.192.166 1.472.276.37.145.634.318.912.598.277.28.45.546.593.92.108.281.238.705.273 1.485.038.844.046 1.097.046 3.233 0 2.137-.008 2.389-.046 3.233z" fill="#fff"/><path fill-rule="evenodd" clip-rule="evenodd" d="M8 4.392c-2.25 0-4.072 1.84-4.072 4.107 0 2.27 1.823 4.11 4.072 4.11s4.072-1.84 4.072-4.11c0-2.268-1.823-4.107-4.072-4.107zm0 6.774c-1.46 0-2.643-1.194-2.643-2.667C5.357 7.027 6.54 5.833 8 5.833c1.459 0 2.643 1.194 2.643 2.666 0 1.473-1.184 2.667-2.643 2.667z" fill="#fff"/></svg>