<svg width="26" height="26" fill="none" xmlns="http://www.w3.org/2000/svg"><path fill-rule="evenodd" clip-rule="evenodd" d="M19.957 4.692c-.834 0-1.51.683-1.51 1.527 0 .84.676 1.523 1.51 1.523.835 0 1.512-.683 1.512-1.523a1.52 1.52 0 00-1.512-1.527z" fill="#000"/><path fill-rule="evenodd" clip-rule="evenodd" d="M25.752 7.762c-.062-1.353-.275-2.278-.586-3.085a6.22 6.22 0 00-1.451-2.25A6.173 6.173 0 0021.483.961c-.8-.313-1.715-.529-3.056-.59C17.084.31 16.655.295 13.234.295c-3.42 0-3.849.016-5.192.078-1.34.06-2.255.276-3.056.589a6.184 6.184 0 00-2.231 1.466 6.218 6.218 0 00-1.452 2.25C.992 5.484.779 6.41.717 7.762.655 9.117.64 9.55.64 13c0 3.451.014 3.883.076 5.24.062 1.351.275 2.274.586 3.082.32.836.751 1.546 1.452 2.25a6.152 6.152 0 002.231 1.467c.8.314 1.715.528 3.056.59 1.343.062 1.772.077 5.192.077s3.85-.015 5.193-.076c1.34-.063 2.256-.277 3.056-.591a6.152 6.152 0 002.232-1.466 6.207 6.207 0 001.451-2.25c.311-.81.524-1.732.586-3.084.062-1.356.076-1.788.076-5.24 0-3.449-.014-3.882-.076-5.237zm-2.266 10.373c-.056 1.238-.262 1.91-.434 2.36a3.973 3.973 0 01-.942 1.46 3.9 3.9 0 01-1.448.95c-.445.175-1.112.38-2.338.437-1.328.062-1.726.074-5.09.074-3.363 0-3.761-.012-5.087-.074-1.23-.057-1.895-.262-2.34-.438a3.881 3.881 0 01-1.447-.948 3.956 3.956 0 01-.943-1.461c-.172-.45-.378-1.122-.434-2.36-.06-1.34-.073-1.741-.073-5.135 0-3.393.013-3.794.073-5.135.056-1.239.262-1.912.434-2.358a3.93 3.93 0 01.943-1.462c.44-.444.86-.72 1.447-.95.445-.174 1.11-.38 2.34-.438 1.326-.06 1.724-.074 5.087-.074 3.364 0 3.76.014 5.09.074 1.226.057 1.893.264 2.338.439.588.23 1.007.505 1.448.95.44.444.713.867.942 1.46.172.447.378 1.12.434 2.36.06 1.34.073 1.741.073 5.134 0 3.394-.013 3.794-.073 5.135z" fill="#000"/><path fill-rule="evenodd" clip-rule="evenodd" d="M13.235 6.476c-3.572 0-6.467 2.92-6.467 6.523 0 3.605 2.895 6.526 6.467 6.526 3.572 0 6.467-2.92 6.467-6.526 0-3.602-2.895-6.523-6.467-6.523zm0 10.759c-2.319 0-4.198-1.897-4.198-4.236 0-2.338 1.879-4.234 4.198-4.234 2.317 0 4.198 1.896 4.198 4.234 0 2.34-1.88 4.236-4.198 4.236z" fill="#000"/></svg>