<svg width="26" height="26" fill="none" xmlns="http://www.w3.org/2000/svg"><path fill-rule="evenodd" clip-rule="evenodd" d="M5.324 8.235h1.853c.474 0 .652.208.83.72.906 2.64 2.434 4.947 3.063 4.947.235 0 .343-.108.343-.705v-2.73c-.043-.777-.314-1.112-.514-1.36-.124-.156-.221-.275-.221-.445 0-.208.176-.427.47-.427h2.913c.394 0 .53.211.53.681v3.67c0 .393.17.531.288.531.236 0 .432-.138.864-.569 1.335-1.492 2.277-3.79 2.277-3.79.118-.274.335-.523.807-.523h1.853c.561 0 .679.289.561.681-.236 1.08-2.493 4.26-2.493 4.26-.197.314-.275.472 0 .824.096.137.303.338.54.569.243.24.516.508.735.767.797.894 1.396 1.65 1.564 2.17.153.523-.112.789-.643.789h-1.852c-.497 0-.746-.28-1.286-.88-.23-.254-.512-.567-.885-.942-1.099-1.058-1.57-1.196-1.845-1.196-.374 0-.485.105-.485.635v1.662c0 .455-.146.72-1.324.72-1.963 0-4.122-1.192-5.653-3.39C5.316 11.684 4.69 9.25 4.69 8.759c0-.275.106-.524.635-.524zM2.078 2.077C.294 3.861.294 6.731.294 12.471v1.059c0 5.738 0 8.61 1.784 10.393 1.783 1.782 4.653 1.782 10.393 1.782h1.06c5.74 0 8.61 0 10.391-1.782 1.784-1.783 1.784-4.655 1.784-10.393v-1.06c0-5.74 0-8.61-1.784-10.393C22.14.294 19.27.294 13.53.294h-1.06c-5.739 0-8.609 0-10.392 1.783z" fill="#000"/></svg>