<svg width="16" height="17" fill="none" xmlns="http://www.w3.org/2000/svg"><path fill-rule="evenodd" clip-rule="evenodd" d="M3.167 5.5h1.167c.298 0 .41.13.522.454.571 1.662 1.533 3.114 1.929 3.114.148 0 .216-.068.216-.444v-1.72c-.027-.488-.198-.7-.324-.855-.078-.098-.139-.173-.139-.28 0-.131.111-.27.296-.27h1.834c.248 0 .334.134.334.43v2.31c0 .248.107.335.181.335.149 0 .272-.087.544-.358.841-.94 1.434-2.386 1.434-2.386a.504.504 0 01.508-.33h1.167c.353 0 .427.182.353.429-.149.68-1.57 2.682-1.57 2.682-.124.198-.173.297 0 .519.061.086.191.213.34.358.153.15.325.32.463.483.502.563.879 1.038.985 1.367.096.329-.071.496-.405.496h-1.166c-.313 0-.47-.176-.81-.554-.145-.16-.322-.357-.557-.593-.692-.666-.989-.753-1.162-.753-.235 0-.305.066-.305.4v1.046c0 .286-.092.454-.834.454-1.236 0-2.595-.752-3.559-2.135-1.447-2.027-1.842-3.56-1.842-3.87 0-.172.067-.33.4-.33zM1.123 1.623C0 2.746 0 4.553 0 8.167v.667c0 3.613 0 5.42 1.123 6.543C2.246 16.5 4.053 16.5 7.667 16.5h.667c3.614 0 5.421 0 6.543-1.123C16 14.255 16 12.447 16 8.834v-.667c0-3.614 0-5.421-1.123-6.544C13.755.5 11.948.5 8.334.5h-.667C4.053.5 2.246.5 1.123 1.623z" fill="#fff"/></svg>