<svg width="221" height="318" viewBox="0 0 221 318" fill="none" xmlns="http://www.w3.org/2000/svg">
<mask id="mask0" mask-type="alpha" maskUnits="userSpaceOnUse" x="0" y="0" width="221" height="318">
<path fill-rule="evenodd" clip-rule="evenodd" d="M0.852539 0.510803H220.433V317.05H0.852539V0.510803Z" fill="white"/>
</mask>
<g mask="url(#mask0)">
<path fill-rule="evenodd" clip-rule="evenodd" d="M83.7155 300.419L88.4605 303.179L88.4705 303.162C88.5465 303.206 88.6255 303.246 88.7115 303.246C88.7975 303.246 88.8845 303.224 88.9615 303.179L209.319 233.651C209.555 233.515 209.638 233.214 209.505 232.976L206.458 227.515L218.937 234.771L79.2085 315.487L83.7155 300.419ZM18.9845 262.78L31.9475 270.318L27.0895 286.154L2.88554 272.08L18.9845 262.78ZM142.042 2.09407L137.093 17.4181L132.347 14.6581C132.215 14.5821 132.056 14.5681 131.916 14.6241C131.891 14.6341 131.874 14.6541 131.852 14.6671L131.846 14.6581L11.4885 84.1861C11.2615 84.3161 11.1745 84.6021 11.2895 84.8371L13.4345 89.2351L2.34954 82.7901L142.042 2.09407ZM143.202 1.75507L167.413 15.8331L150.836 25.4091L137.978 17.9331L143.202 1.75507ZM179.641 162.347L175.432 159.899L209.05 59.7211C209.126 59.4961 209.032 59.2491 208.827 59.1291L202.82 55.6361L218.503 46.5751L179.641 162.347ZM172.915 167.397L175.107 160.867L179.549 163.45L218.608 233.422L205.502 225.802L172.915 167.397ZM194.811 219.585L162.974 162.552L172.002 167.811L203.808 224.816L194.811 219.585ZM191.326 222.324L194.44 220.526L204.764 226.529L207.743 231.869L191.326 222.324ZM96.9625 276.835L190.328 222.9L208.071 233.218L89.5505 301.685L96.9625 276.835ZM70.9695 291.852L88.2125 281.891L83.1195 298.916L70.9695 291.852ZM69.9715 292.428L82.8255 299.902L78.0705 315.798L53.8725 301.728L69.9715 292.428ZM58.3455 285.667L68.9755 291.849L53.7285 300.656L58.3455 285.667ZM43.4825 277.025L28.2335 285.834L32.8345 270.834L43.4825 277.025ZM38.8205 251.321L45.0115 247.745L37.4325 272.351L33.1355 269.853L38.8205 251.321ZM37.5505 252.055L32.2485 269.337L19.9825 262.204L37.5505 252.055ZM13.2285 258.276L40.4695 242.54L37.9805 250.652L18.9865 261.625L13.2285 258.276ZM37.7015 157.503L41.9965 159.947L11.7535 258.128C11.6855 258.351 11.7785 258.591 11.9805 258.708L17.9875 262.201L2.74054 271.01L37.7015 157.503ZM44.2845 152.521L42.2985 158.968L37.7895 156.402L2.52154 84.0481L14.2215 90.8511L44.2845 152.521ZM26.4625 97.9691L55.9405 158.231L45.2015 152.12L15.7735 91.7531L26.4625 97.9691ZM29.4815 95.5131L26.8465 97.0341L14.9855 90.1381L12.9075 85.8761L29.4815 95.5131ZM123.18 41.3861L30.4795 94.9371L12.7365 84.6201L131.227 16.1701L123.18 41.3861ZM130.768 37.0021L124.467 40.6421L132.383 15.8361L136.779 18.3921L130.768 37.0021ZM132.059 36.2561L137.663 18.9061L149.838 25.9851L132.059 36.2561ZM156.594 29.9131L128.95 45.8821L131.601 37.6751L150.834 26.5651L156.594 29.9131ZM162.41 32.1391L151.832 25.9881L167.516 16.9291L162.41 32.1391ZM187.904 46.9621L183.334 44.3051L177.326 40.8121L193.01 31.7511L187.904 46.9621ZM182.493 66.2231L188.461 48.4431L200.824 55.6331L182.493 66.2231ZM179.233 75.9361L182.012 67.6551L201.821 56.2121L207.579 59.5611L179.233 75.9361ZM155.029 148.036L178.752 77.3681L207.682 60.6551L174.549 159.386L155.029 148.036ZM147.488 152.373L149.605 146.068L154.057 148.628L160.32 159.849L147.488 152.373ZM180.01 210.979L148.18 153.933L161.277 161.563L193.114 218.599L180.01 210.979ZM183.945 218.032L180.965 212.691L193.444 219.947L190.331 221.745L183.945 218.032ZM99.7845 267.376L183.574 218.974L189.333 222.321L97.3785 275.44L99.7845 267.376ZM92.3055 271.696L98.5235 268.105L96.1165 276.17L89.8925 279.766L92.3055 271.696ZM91.0425 272.426L88.6295 280.495L69.9735 291.273L64.2145 287.924L91.0425 272.426ZM64.3665 266.115L70.5045 262.57L62.9255 287.174L58.6475 284.687L64.3665 266.115ZM63.0955 266.851L57.7605 284.171L45.4765 277.028L63.0955 266.851ZM66.0285 257.326L63.5285 265.445L44.4805 276.448L38.7215 273.101L66.0285 257.326ZM74.1665 230.902L66.4605 255.921L38.5765 272.029L46.2835 247.01L74.1665 230.902ZM49.2175 237.486L77.1005 221.379L74.5995 229.499L46.7165 245.606L49.2175 237.486ZM47.9445 238.222L45.4445 246.341L39.2505 249.919L41.7395 241.806L47.9445 238.222ZM63.1575 171.989L67.5725 174.502L48.3775 236.817L42.1695 240.403L63.1575 171.989ZM62.2675 171.482L40.8995 241.138L13.0835 257.206L42.8875 160.454L62.2675 171.482ZM69.8015 167.27L67.8745 173.523L63.2445 170.888L58.2625 160.703L69.8015 167.27ZM39.7395 105.689L69.2335 165.796L57.4835 159.108L28.0195 98.8731L39.7395 105.689ZM36.8495 99.7981L38.9445 104.069L27.8425 97.6131L30.4765 96.0921L36.8495 99.7981ZM120.115 50.9851L37.2335 98.8631L31.4745 95.5151L122.728 42.8011L120.115 50.9851ZM121.404 50.2411L124.015 42.0581L130.309 38.4221L127.658 46.6281L121.404 50.2411ZM119.034 73.3311L112.905 76.8711L120.952 51.6561L127.2 48.0471L119.034 73.3311ZM148.098 56.5421L120.326 72.5851L128.492 47.3011L156.694 31.0101L148.098 56.5421ZM156.998 51.3991L162.967 33.6191L175.332 40.8091L156.998 51.3991ZM153.738 61.1121L156.518 52.8321L176.328 41.3881L182.086 44.7361L153.738 61.1121ZM171.675 80.3021L174.454 72.0221L180.704 68.4111L177.924 76.6911L171.675 80.3021ZM129.529 133.372L129.499 133.32L140.951 99.2041L169.887 82.4881L149.045 144.593L129.529 133.372ZM136.574 146.015L130.474 135.069L148.721 145.56L146.607 151.859L136.574 146.015ZM169.317 204.761L137.529 147.728L146.484 152.944L178.315 209.993L169.317 204.761ZM165.833 207.501L168.946 205.702L179.271 211.706L182.25 217.047L165.833 207.501ZM107.613 241.134L164.835 208.077L182.578 218.395L100.201 265.981L107.613 241.134ZM100.158 245.44L106.352 241.862L98.9395 266.71L92.7235 270.301L100.158 245.44ZM98.8965 246.169L91.4605 271.03L64.0695 286.853L71.7775 261.835L98.8965 246.169ZM74.7105 252.311L101.727 236.704L99.3135 244.773L72.2095 260.431L74.7105 252.311ZM73.4385 253.046L70.9375 261.165L64.8005 264.71L67.3005 256.591L73.4385 253.046ZM81.5775 226.621L73.8705 251.641L67.7335 255.187L75.4395 230.167L81.5775 226.621ZM84.5115 217.098L82.0105 225.218L75.8715 228.764L78.3725 220.644L84.5115 217.098ZM88.8545 186.612L93.1505 189.057L84.9445 215.693L78.8055 219.24L88.8545 186.612ZM87.9645 186.106L77.5325 219.975L49.6505 236.082L68.4635 175.009L87.9645 186.106ZM82.3515 174.411L87.3905 184.629L68.7655 174.029L70.6915 167.776L82.3515 174.411ZM51.9585 112.793L81.5625 172.812L70.7785 166.676L41.2985 106.595L51.9585 112.793ZM54.9745 110.337L52.3405 111.858L40.5035 104.976L38.4075 100.704L54.9745 110.337ZM55.9725 109.76L38.2295 99.4421L119.664 52.4001L111.617 77.6151L55.9725 109.76ZM108.555 87.2141L62.7265 113.687L56.9685 110.339L111.166 79.0311L108.555 87.2141ZM115.926 82.9551L109.842 86.4701L112.453 78.2871L118.575 74.7511L115.926 82.9551ZM144.825 66.2611L117.218 82.2091L119.867 74.0041L147.615 57.9761L144.825 66.2611ZM146.135 65.5041L148.925 57.2191L155.21 53.5881L152.431 61.8671L146.135 65.5041ZM143.385 88.8151L137.057 92.4701L145.653 66.9381L151.949 63.3001L143.385 88.8151ZM144.693 88.0591L153.258 62.5441L182.189 45.8311L173.627 71.3441L144.693 88.0591ZM144.212 89.4911L173.147 72.7761L170.367 81.0571L141.432 97.7731L144.212 89.4911ZM133.783 102.19L136.573 93.9031L142.904 90.2471L140.124 98.5281L133.783 102.19ZM128.606 132.842L124.298 130.365L133.301 103.623L139.644 99.9601L128.606 132.842ZM121.906 137.47L123.973 131.331L128.789 134.101L134.879 145.027L121.906 137.47ZM154.512 196.152L122.63 139.048L135.834 146.74L167.623 203.776L154.512 196.152ZM158.45 203.208L155.468 197.865L167.95 205.124L164.838 206.922L158.45 203.208ZM110.435 231.674L158.08 204.149L163.839 207.498L108.029 239.738L110.435 231.674ZM109.173 232.402L106.768 240.467L100.576 244.044L102.989 235.975L109.173 232.402ZM110.843 209.716L117.002 206.158L109.59 231.007L103.407 234.579L110.843 209.716ZM109.58 210.445L102.145 235.308L75.1435 250.905L82.8505 225.887L109.58 210.445ZM112.41 200.981L109.997 209.05L83.2825 224.482L85.7835 216.362L112.41 200.981ZM112.244 199.923L86.2165 214.958L94.0395 189.564L112.244 199.923ZM96.2675 182.331L107.134 188.515L112.092 198.686L94.3415 188.584L96.2675 182.331ZM65.2605 120.527L94.8035 180.347L83.1115 173.693L53.5215 113.701L65.2605 120.527ZM62.3435 114.621L64.4585 118.903L53.3365 112.438L55.9705 110.916L62.3435 114.621ZM80.4675 125.159L77.8335 126.681L66.0235 119.814L63.9085 115.531L80.4675 125.159ZM100.057 113.844L81.4655 124.583L63.7225 114.266L108.104 88.6281L100.057 113.844ZM107.301 109.659L101.344 113.101L109.391 87.8851L115.467 84.3741L107.301 109.659ZM108.593 108.913L116.759 83.6281L144.343 67.6941L135.746 93.2271L108.593 108.913ZM105.484 118.539L108.135 110.332L135.264 94.6601L132.474 102.947L105.484 118.539ZM105.61 119.62L131.991 104.38L123.414 129.857L105.61 119.62ZM111.731 131.541L105.906 120.944L123.089 130.823L121.024 136.956L111.731 131.541ZM143.824 189.939L112.666 133.243L120.932 138.059L152.816 195.167L143.824 189.939ZM140.339 192.677L143.452 190.879L153.772 196.879L156.754 202.222L140.339 192.677ZM139.341 193.253L157.084 203.57L110.851 230.278L118.264 205.43L139.341 193.253ZM121.085 195.97L132.587 189.326L138.346 192.675L118.68 204.035L121.085 195.97ZM119.823 196.698L117.418 204.764L111.26 208.321L113.673 200.252L119.823 196.698ZM119.657 195.641L113.464 199.219L108.674 189.391L119.657 195.641ZM96.9915 123.444L88.2205 128.511L82.4615 125.162L99.6045 115.26L96.9915 123.444ZM98.2795 122.7L100.893 114.516L106.843 111.078L104.192 119.285L98.2795 122.7ZM98.4075 123.78L104.416 120.31L110.051 130.563L98.4075 123.78ZM98.6985 125.107L110.987 132.265L142.779 190.113L139.344 192.098L132.961 188.387L98.6985 125.107ZM120.876 194.937L88.8725 129.288L97.2165 124.469L131.917 188.559L120.876 194.937ZM78.4865 127.459L81.4635 125.739L87.8365 129.444L119.504 194.403L107.898 187.799L78.4865 127.459ZM96.3545 181.23L66.8245 121.437L77.4505 127.615L106.359 186.923L96.3545 181.23ZM88.9405 185.511L83.9005 175.293L95.3775 181.824L93.4505 188.078L88.9405 185.511ZM154.147 147.526L149.929 145.102L171.195 81.7331L177.444 78.1231L154.147 147.526ZM187.579 47.9311L181.185 66.9781L174.935 70.5891L183.362 45.4781L187.579 47.9311ZM162.085 33.1071L155.691 52.1551L149.407 55.7851L157.868 30.6541L162.085 33.1071ZM45.1145 153.222L56.7195 159.825L61.7015 170.01L43.1895 159.475L45.1145 153.222ZM172.093 166.706L162.018 160.837L155.752 149.613L174.225 160.355L172.093 166.706ZM218.401 45.4801L201.823 55.0561L188.786 47.4751L194.183 31.3981L218.401 45.4801ZM192.907 30.6561L176.33 40.2321L163.292 32.6511L168.689 16.5741L192.907 30.6561ZM28.3795 286.904L44.4785 277.605L57.4575 285.151L52.5835 300.978L28.3795 286.904ZM88.4135 301.994L84.0095 299.434L89.4745 281.161L95.7005 277.565L88.4135 301.994ZM220.37 234.527L180.463 163.036L219.871 45.6401C219.938 45.4421 219.875 45.2251 219.714 45.0941C219.693 45.0761 219.663 45.0771 219.64 45.0641L219.649 45.0481L194.155 30.2251L168.661 15.4011L143.171 0.580072C143.02 0.490072 142.826 0.486072 142.667 0.578072L1.10254 82.3571C0.947539 82.4451 0.852539 82.6101 0.852539 82.7881C0.852539 82.8651 0.877539 82.9381 0.909539 83.0051L0.902539 83.0081L36.8715 156.802L1.41054 271.932L1.42654 271.937C1.41154 271.983 1.38854 272.027 1.38854 272.078C1.38854 272.257 1.48354 272.422 1.63754 272.512L52.6245 302.159L78.1175 316.982L78.1275 316.966C78.2035 317.01 78.2825 317.05 78.3685 317.05C78.4545 317.05 78.5405 317.027 78.6185 316.982L220.184 235.204C220.42 235.067 220.503 234.767 220.37 234.527Z" fill="#231F20"/>
</g>
</svg>
