<svg width="215" height="305" viewBox="0 0 215 305" fill="none" xmlns="http://www.w3.org/2000/svg">
<path fill-rule="evenodd" clip-rule="evenodd" d="M208.894 117.043L187.86 153.496L182.017 150.099C181.904 150.034 181.769 150.017 181.637 150.048C181.509 150.082 181.399 150.166 181.332 150.281L158.171 190.452L141.611 180.939L158.546 151.623L164.415 154.995C164.652 155.131 164.959 155.05 165.097 154.812L192.418 107.463L208.894 117.043ZM192.056 155.937L188.724 153.999L209.76 117.542L213.107 119.454L192.056 155.937ZM208.894 166.884L164.454 243.901L141.61 230.778L158.543 201.467L164.415 204.84C164.652 204.975 164.959 204.895 165.097 204.656L192.419 157.305L208.894 166.884ZM164.481 253.564L137.425 238.022L141.11 231.645L164.388 245.017C164.623 245.152 164.932 245.071 165.07 244.833L209.76 167.383L213.107 169.295L164.481 253.564ZM74.8942 303.559L47.9492 287.891L51.6182 281.532L74.7992 295.012C74.8752 295.056 74.9622 295.079 75.0502 295.079C75.0932 295.079 75.1362 295.073 75.1792 295.063C75.3072 295.028 75.4162 294.944 75.4832 294.829L115.015 226.302L118.229 228.147L74.8942 303.559ZM33.6492 271.538L46.9892 278.841L50.7532 281.03L47.0802 287.397L29.9602 277.93L33.6492 271.538ZM5.83217 255.379L32.7792 271.047L29.0912 277.437L2.14517 261.769L5.83217 255.379ZM68.1202 250.935L51.2532 280.163L47.9212 278.227L64.7882 248.997L68.1202 250.935ZM47.9492 238.05L51.6182 231.692L68.0912 241.272L64.4232 247.629L47.9492 238.05ZM33.6492 221.698L46.9892 229.001L50.7532 231.19L47.0802 237.557L29.9602 228.09L33.6492 221.698ZM5.83217 205.539L32.7792 221.206L29.0912 227.597L2.14517 211.929L5.83217 205.539ZM68.1222 201.091L51.2532 230.323L47.9212 228.386L64.7902 199.154L68.1222 201.091ZM47.9492 188.205L51.6182 181.848L68.0932 191.428L64.4252 197.785L47.9492 188.205ZM33.6492 171.854L46.9892 179.156L50.7532 181.345L47.0802 187.712L29.9602 178.245L33.6492 171.854ZM5.83217 155.694L32.7792 171.362L29.0912 177.752L2.14517 162.084L5.83217 155.694ZM68.1182 151.253L51.2532 180.479L47.9212 178.542L64.7862 149.315L68.1182 151.253ZM47.9492 138.369L51.6182 132.012L68.0902 141.59L64.4212 147.947L47.9492 138.369ZM33.6492 122.018L46.9892 129.32L50.7532 131.509L47.0802 137.876L29.9602 128.409L33.6492 122.018ZM5.83217 105.858L32.7792 121.526L29.0912 127.916L2.14517 112.248L5.83217 105.858ZM91.3092 53.5152L118.329 69.0362L114.648 75.4172L91.4022 62.0632C91.1642 61.9252 90.8572 62.0072 90.7202 62.2462L51.2532 130.643L47.9212 128.706L91.3092 53.5152ZM181.949 1.69518L185.296 3.64218L140.744 80.7602L137.454 78.8692L181.949 1.69518ZM192.057 56.2532L188.726 54.3152L209.76 17.8612L213.107 19.7732L192.057 56.2532ZM208.894 67.1992L187.859 103.654L182.017 100.258C181.904 100.192 181.769 100.176 181.637 100.207C181.509 100.241 181.399 100.325 181.332 100.44L158.173 140.608L141.611 131.093L158.542 101.785L164.415 105.159C164.652 105.295 164.959 105.215 165.097 104.976L192.421 57.6212L208.894 67.1992ZM162.731 144.38L164.388 145.332C164.623 145.468 164.932 145.387 165.07 145.148L188.223 105.023L191.554 106.96L164.481 153.879L159.046 150.757L162.731 144.38ZM162.365 143.016L159.041 141.106L181.949 101.375L185.296 103.321L162.365 143.016ZM187.359 104.521L164.454 144.216L163.231 143.514L186.161 103.824L187.359 104.521ZM154.863 148.354L158.541 141.974L161.864 143.882L158.18 150.259L154.863 148.354ZM137.454 178.55L154.364 149.221L157.679 151.126L140.744 180.44L137.454 178.55ZM136.559 187.684L115.515 175.595L119.196 169.215L140.244 181.306L136.559 187.684ZM153.994 197.699L137.425 188.182L141.11 181.804L157.672 191.317L153.994 197.699ZM137.454 228.391L154.362 199.064L157.677 200.969L140.744 230.28L137.454 228.391ZM119.196 219.056L140.244 231.147L136.559 237.523L115.515 225.435L119.196 219.056ZM98.0622 215.409L101.732 209.023L118.329 218.558L114.649 224.938L98.0622 215.409ZM74.8272 254.835C74.9032 254.879 74.9902 254.902 75.0782 254.902C75.1212 254.902 75.1652 254.897 75.2072 254.886C75.3352 254.851 75.4452 254.767 75.5112 254.651L97.5642 216.276L114.149 225.804L74.8682 293.895L52.1182 280.666L68.9842 251.438L74.8272 254.835ZM73.1522 244.214L74.7992 245.172C74.8752 245.216 74.9622 245.239 75.0502 245.239C75.0932 245.239 75.1362 245.233 75.1792 245.223C75.3072 245.189 75.4162 245.105 75.4832 244.989L93.4192 213.896L96.6972 215.778L74.8942 253.718L69.4832 250.571L73.1522 244.214ZM72.2882 243.711L68.6192 250.069L65.2882 248.132L68.9562 241.774L72.2882 243.711ZM92.5532 213.398L74.8682 244.055L73.6522 243.348L91.3362 212.699L92.5532 213.398ZM91.3092 203.036L96.7332 206.152L93.0532 212.531L91.4022 211.583C91.1642 211.445 90.8572 211.527 90.7202 211.767L72.7882 242.845L69.4562 240.907L91.3092 203.036ZM100.865 208.525L97.1952 214.911L93.9192 213.029L97.6002 206.649L100.865 208.525ZM101.363 207.657L98.1002 205.783L115.015 176.462L118.229 178.308L101.363 207.657ZM153.494 198.565L136.585 227.892L102.23 208.156L119.096 178.806L153.494 198.565ZM74.8272 204.99C74.9032 205.034 74.9902 205.058 75.0782 205.058C75.1212 205.058 75.1652 205.052 75.2072 205.041C75.3352 205.006 75.4452 204.922 75.5112 204.807L97.5622 166.436L114.148 175.964L97.2332 205.285L91.3742 201.92C91.1372 201.783 90.8292 201.864 90.6932 202.104L68.5912 240.405L52.1182 230.826L68.9852 201.594L74.8272 204.99ZM73.1542 194.37L74.7992 195.327C74.8752 195.371 74.9622 195.395 75.0502 195.395C75.0932 195.395 75.1362 195.389 75.1792 195.378C75.3072 195.344 75.4162 195.26 75.4832 195.145L93.4172 164.055L96.6952 165.938L74.8942 203.873L69.4852 200.728L73.1542 194.37ZM72.2902 193.868L68.6212 200.226L65.2902 198.288L68.9572 191.931L72.2902 193.868ZM92.5512 163.558L74.8682 194.21L73.6542 193.504L91.3362 162.859L92.5512 163.558ZM91.3092 153.195L96.7322 156.311L93.0512 162.69L91.4022 161.743C91.1642 161.606 90.8572 161.687 90.7202 161.927L72.7902 193.001L69.4572 191.064L91.3092 153.195ZM74.8272 155.154C74.9032 155.198 74.9902 155.222 75.0782 155.222C75.1212 155.222 75.1652 155.216 75.2072 155.205C75.3352 155.17 75.4452 155.086 75.5112 154.971L97.5662 116.593L114.149 126.119L97.2322 155.444L91.3742 152.079C91.1372 151.942 90.8292 152.023 90.6932 152.263L68.5932 190.562L52.1182 180.981L68.9822 151.756L74.8272 155.154ZM73.1502 144.532L74.7992 145.491C74.8752 145.535 74.9622 145.559 75.0502 145.559C75.0932 145.559 75.1362 145.553 75.1792 145.542C75.3072 145.508 75.4162 145.424 75.4832 145.309L93.4212 114.212L96.6982 116.095L74.8942 154.037L69.4812 150.89L73.1502 144.532ZM72.2862 144.029L68.6172 150.387L65.2862 148.45L68.9542 142.093L72.2862 144.029ZM92.5542 113.715L74.8682 144.374L73.6502 143.666L91.3362 113.015L92.5542 113.715ZM91.3092 103.351L96.7352 106.468L93.0542 112.848L91.4022 111.898C91.1642 111.761 90.8572 111.843 90.7202 112.082L72.7862 143.163L69.4542 141.226L91.3092 103.351ZM97.2352 105.601L91.3742 102.234C91.1372 102.098 90.8292 102.179 90.6932 102.418L68.5892 140.724L52.1182 131.146L91.3362 63.1792L114.148 76.2832L97.2352 105.601ZM118.229 78.6282L101.365 107.974L98.1022 106.099L115.015 76.7802L118.229 78.6282ZM136.559 88.0032L115.515 75.9142L119.195 69.5342L140.244 81.6262L136.559 88.0032ZM157.67 91.6372L153.992 98.0182L137.425 88.5012L141.11 82.1242L157.67 91.6372ZM182.017 50.4142C181.904 50.3502 181.769 50.3322 181.637 50.3632C181.509 50.3972 181.399 50.4812 181.332 50.5972L158.17 90.7712L141.611 81.2572L186.16 4.14418L208.894 17.3622L187.862 53.8132L182.017 50.4142ZM164.454 94.3802L163.227 93.6762L186.16 53.9802L187.362 54.6792L164.454 94.3802ZM162.727 94.5422L164.388 95.4962C164.623 95.6322 164.932 95.5512 165.07 95.3132L188.226 55.1822L191.558 57.1192L164.481 104.043L159.042 100.919L162.727 94.5422ZM159.038 91.2692L181.949 51.5312L185.296 53.4782L162.361 93.1782L159.038 91.2692ZM154.86 98.5162L158.539 92.1362L161.86 94.0442L158.176 100.421L154.86 98.5162ZM137.454 128.705L154.36 99.3832L157.675 101.287L140.744 130.596L137.454 128.705ZM153.492 98.8842L136.585 128.206L102.232 108.472L119.096 79.1262L153.492 98.8842ZM97.1972 115.228L93.9212 113.346L97.6022 106.966L100.867 108.841L97.1972 115.228ZM101.734 109.339L118.33 118.873L114.649 125.253L98.0642 115.726L101.734 109.339ZM136.559 137.839L115.515 125.75L119.196 119.37L140.244 131.462L136.559 137.839ZM137.425 138.337L141.11 131.96L157.674 141.475L153.996 147.855L137.425 138.337ZM101.73 159.182L118.329 168.717L114.648 175.097L98.0602 165.568L101.73 159.182ZM98.0982 155.941L115.015 126.617L118.229 128.464L101.361 157.816L98.0982 155.941ZM100.863 158.684L97.1932 165.069L93.9172 163.189L97.5982 156.809L100.863 158.684ZM102.228 158.314L119.096 128.962L153.496 148.722L136.585 178.052L102.228 158.314ZM161.863 193.725L158.178 200.103L154.861 198.197L158.54 191.816L161.863 193.725ZM162.363 192.859L159.04 190.95L181.949 151.216L185.296 153.162L162.363 192.859ZM188.224 154.865L191.556 156.802L164.481 203.724L159.044 200.601L162.729 194.223L164.388 195.176C164.623 195.312 164.932 195.231 165.07 194.992L188.224 154.865ZM164.454 194.061L163.229 193.357L186.16 153.665L187.36 154.362L164.454 194.061ZM192.054 106.094L188.723 104.157L209.76 67.6982L213.106 69.6092L192.054 106.094ZM214.223 69.6742C214.29 69.5592 214.308 69.4222 214.273 69.2932C214.239 69.1652 214.154 69.0562 214.039 68.9892L209.824 66.5832H209.823L192.921 56.7552L214.223 19.8382C214.29 19.7232 214.308 19.5862 214.273 19.4572C214.239 19.3292 214.154 19.2202 214.039 19.1532L209.824 16.7462H209.823L182.017 0.578178C181.904 0.513178 181.769 0.495178 181.637 0.527178C181.509 0.562178 181.399 0.646178 181.332 0.761178L136.585 78.3702L91.3742 52.3982C91.1372 52.2612 90.8292 52.3432 90.6932 52.5822L47.0512 128.215L33.7112 120.912L5.90117 104.741C5.78817 104.677 5.65317 104.659 5.52117 104.69C5.39317 104.725 5.28417 104.809 5.21717 104.924L1.03117 112.18C0.893168 112.418 0.974168 112.724 1.21217 112.862L29.0222 129.033L29.0232 129.031C29.0262 129.033 29.0282 129.036 29.0312 129.038L47.0172 138.983L63.9212 148.814L47.0512 178.051L33.7112 170.748L5.90117 154.577C5.78817 154.512 5.65317 154.494 5.52117 154.526C5.39317 154.561 5.28417 154.645 5.21717 154.76L1.03117 162.016C0.893168 162.254 0.974168 162.56 1.21217 162.698L29.0222 178.869L29.0232 178.867C29.0262 178.869 29.0282 178.872 29.0312 178.874L47.0172 188.819L63.9252 198.651L47.0512 227.895L33.7112 220.592L5.90117 204.422C5.78817 204.356 5.65317 204.34 5.52117 204.371C5.39317 204.405 5.28417 204.489 5.21717 204.605L1.03117 211.86C0.893168 212.099 0.974168 212.404 1.21217 212.543L29.0222 228.714L29.0232 228.712C29.0262 228.714 29.0282 228.717 29.0312 228.719L47.0172 238.665L63.9232 248.495L47.0512 277.735L33.7112 270.433L5.90117 254.262C5.78817 254.196 5.65317 254.18 5.52117 254.211C5.39317 254.245 5.28417 254.329 5.21717 254.444L1.03117 261.7C0.893168 261.939 0.974168 262.244 1.21217 262.383L29.0222 278.554L29.0232 278.552C29.0262 278.554 29.0282 278.557 29.0312 278.559L47.0172 288.505L74.8272 304.676C74.9032 304.72 74.9902 304.743 75.0782 304.743C75.1212 304.743 75.1652 304.737 75.2072 304.727C75.3352 304.691 75.4452 304.607 75.5112 304.492L119.096 228.646L164.415 254.68C164.652 254.815 164.959 254.734 165.097 254.496L214.223 169.359C214.29 169.244 214.308 169.107 214.273 168.979C214.239 168.851 214.154 168.741 214.039 168.675L209.824 166.268H209.823L192.919 156.439L214.223 119.519C214.29 119.403 214.308 119.267 214.273 119.138C214.239 119.01 214.154 118.9 214.039 118.834L209.824 116.427H209.823L192.918 106.597L214.223 69.6742Z" fill="#231F20"/>
</svg>
