<svg width="240" height="309" viewBox="0 0 240 309" fill="none" xmlns="http://www.w3.org/2000/svg">
<path fill-rule="evenodd" clip-rule="evenodd" d="M148.816 162.111L147.208 161.19L151.506 153.741L231.98 107.253L237.861 110.673L148.816 162.111ZM183.324 183.014L178.943 190.601L144.494 170.882L144.479 165.919L144.607 165.697L148.819 163.264L183.324 183.014ZM218.343 213.153L179.81 191.097L184.191 183.511L222.723 205.567L218.343 213.153ZM143.847 295.947L137.905 292.492L137.58 177.876L141.83 170.51L143.495 171.464L143.847 295.947ZM137.908 293.65L143.353 296.816L137.925 299.951L137.908 293.65ZM99.0238 277.907L104.948 274.485L136.906 293.067L136.925 299.945L99.0238 277.907ZM104.341 235.48L104.449 273.619L98.5248 277.042L98.4358 245.714L104.341 235.48ZM61.4528 307.807L57.4028 305.458L97.4088 236.054L97.4358 245.447L61.4528 307.807ZM55.8898 216.947L63.8438 212.351L21.9518 284.892L18.0058 282.603L55.8898 216.947ZM36.0658 227.244L36.0458 220.439L61.0568 205.991L55.1578 216.215L36.0658 227.244ZM7.71582 204.549L35.0458 220.439L35.0658 227.238L1.86082 207.93L7.71582 204.549ZM1.34282 200.842L6.72082 203.969L1.36082 207.065L1.34282 200.842ZM95.8738 145.651L89.9738 155.876L7.71882 203.392L1.83782 199.972L95.8738 145.651ZM20.4608 89.7915L58.9718 111.836L54.6338 119.45L16.0808 97.3815L20.4608 89.7915ZM97.1468 143.445L96.9998 143.699L55.5018 119.946L59.8398 112.333L97.1188 133.671L97.1468 143.445ZM97.7778 13.4215L103.721 16.8775L104.046 131.487L101.878 135.244L98.1168 133.09L97.7778 13.4215ZM103.718 15.7175L98.2728 12.5515L103.7 9.41653L103.718 15.7175ZM142.601 31.4615L136.677 34.8815L104.72 16.3005L104.7 9.42253L142.601 31.4615ZM137.285 73.8805L137.177 35.7485L143.101 32.3265L143.189 63.6475L137.285 73.8805ZM180.172 1.55253L184.222 3.90253L144.216 73.1775L144.19 63.9135L180.172 1.55253ZM185.59 92.6695L177.3 97.4585L219.447 24.3405L223.62 26.7615L185.59 92.6695ZM203.634 83.4005L203.653 90.2055L180.423 103.626L186.323 93.4005L203.634 83.4005ZM179.424 105.357L204.153 91.0715L230.984 106.673L152.505 152.009L179.424 105.357ZM144.453 156.661L144.447 154.453L169.414 111.14L177.692 106.357L150.773 153.009L144.453 156.661ZM144.462 159.618L144.457 157.813L149.774 154.741L146.339 160.693L144.462 159.618ZM146.708 162.056L147.815 162.689L145.606 163.965L146.708 162.056ZM144.473 163.927L144.464 160.772L145.84 161.559L144.473 163.927ZM143.484 167.643L143.492 170.309L142.33 169.644L143.484 167.643ZM140.041 168.335L142.876 166.697L141.462 169.148L140.041 168.335ZM137.557 169.769L139.04 168.914L140.962 170.013L137.574 175.884L137.557 169.769ZM104.309 224.086L104.335 233.49L98.4298 243.722L98.4038 234.329L104.309 224.086ZM98.2848 192.456L104.209 189.034L104.303 222.091L98.3978 232.336L98.2848 192.456ZM97.2868 193.033L97.4028 234.061L56.5378 304.956L22.8168 285.394L65.5768 211.35L97.2868 193.033ZM72.4838 199.389L97.2638 185.075L97.2838 191.881L66.5768 209.618L72.4838 199.389ZM70.7518 200.39L64.8448 210.619L56.8888 215.215L62.7888 204.99L70.7518 200.39ZM97.1698 151.718L91.7048 154.876L97.1518 145.435L97.1698 151.718ZM98.1408 141.72L98.1198 134.244L101.379 136.109L98.1408 141.72ZM104.064 137.646L104.07 139.761L98.6038 142.92L102.247 136.606L104.064 137.646ZM104.06 136.493L102.746 135.74L104.052 133.477L104.06 136.493ZM137.317 85.1255L137.291 75.8705L143.195 65.6375L143.221 74.9015L137.317 85.1255ZM143.34 117.076L137.418 120.498L137.323 87.1145L143.227 76.8895L143.34 117.076ZM144.339 116.5L144.222 75.1675L185.087 4.40453L218.582 23.8395L175.568 98.4585L144.339 116.5ZM144.365 125.61L167.682 112.14L144.441 152.459L144.365 125.61ZM141.343 157.834L137.517 155.643L137.443 129.608L143.367 126.186L143.446 154.185L141.343 157.834ZM142.536 157.768L143.452 156.179L143.455 157.238L142.536 157.768ZM142.889 158.718L143.458 158.39L143.46 159.045L142.889 158.718ZM137.548 166.908L137.547 166.422L141.538 159.499L141.888 159.297L143.462 160.199L143.477 165.195L139.038 167.76L137.548 166.908ZM137.552 168.062L138.036 168.339L137.553 168.617L137.552 168.062ZM136.552 168.148L136.555 169.194L135.647 169.718L136.552 168.148ZM104.187 181.076L104.206 187.882L98.2818 191.303L98.2628 184.498L104.187 181.076ZM98.7048 151.986L98.1728 152.908L98.1708 152.295L98.7048 151.986ZM101.378 147.357L99.7058 150.254L98.1678 151.142L98.1518 145.51L101.378 147.357ZM104.078 142.682L101.878 146.491L98.1488 144.356V144.337L104.073 140.914L104.078 142.682ZM105.068 139.185L105.065 138.219L105.906 138.701L105.068 139.185ZM105.613 140.025L105.073 140.96L105.071 140.338L105.613 140.025ZM108.345 137.292L136.328 88.8375L136.419 121.075L108.345 137.292ZM114.842 142.664L136.445 130.185L136.515 155.07L114.842 142.664ZM105.079 142.949L107.128 139.4L112.837 142.668L105.09 147.143L105.079 142.949ZM103.057 148.318L101.438 149.254L102.246 147.853L103.057 148.318ZM102.746 146.988L104.084 144.672L104.092 147.72L104.059 147.739L102.746 146.988ZM131.105 164.372L105.182 179.346L105.097 149.486L131.105 164.372ZM136.533 161.236L132.106 163.793L105.094 148.332V148.296L113.84 143.243L136.518 156.223L136.533 161.236ZM137.535 161.812L139.806 160.499L137.542 164.428L137.535 161.812ZM136.468 166.29L133.11 164.368L136.536 162.388L136.546 166.155L136.468 166.29ZM140.804 158.768L137.531 160.659L137.52 156.797L140.844 158.699L140.804 158.768ZM137.42 121.65L143.344 118.228L143.363 125.034L137.44 128.456L137.42 121.65ZM136.441 129.033L113.838 142.09L107.911 138.697L136.422 122.227L136.441 129.033ZM97.2608 183.922L73.4848 197.657L97.1838 156.62L97.2608 183.922ZM98.1788 154.897L100.438 150.985L104.061 148.892L104.096 148.912L104.183 179.923L98.2588 183.345L98.1788 154.897ZM132.919 172.449L105.298 220.366L105.208 188.457L132.919 172.449ZM105.204 187.304L105.185 180.5L132.108 164.946L135.969 167.156L133.916 170.718L105.204 187.304ZM176.302 99.1885L184.591 94.4005L178.691 104.626L170.412 109.409L176.302 99.1885ZM168.679 110.41L144.362 124.457L144.342 117.652L174.571 100.19L168.679 110.41ZM105.041 129.762L104.723 17.4595L136.177 35.7485L136.291 75.6045L105.041 129.762ZM136.295 77.5945L136.322 86.8475L106.76 138.038L105.062 137.066L105.047 131.754L136.295 77.5945ZM90.7058 156.607L97.1728 152.871L97.1778 154.631L71.7528 198.658L63.7878 203.258L90.7058 156.607ZM35.5458 219.573L8.71482 203.971L88.9748 157.607L62.0558 204.259L35.5458 219.573ZM136.585 179.6L136.903 291.909L105.449 273.619L105.336 233.756L136.585 179.6ZM105.33 231.765L105.304 222.359L134.65 171.449L136.558 170.346L136.579 177.609L105.33 231.765ZM231.983 106.097L204.653 90.2055L204.634 83.4065L237.838 102.715L231.983 106.097ZM238.355 109.802L232.978 106.676L238.337 103.58L238.355 109.802ZM239.358 110.673L239.336 102.715H239.335C239.335 102.537 239.24 102.373 239.086 102.283L204.382 82.1025C204.23 82.0135 204.038 82.0125 203.881 82.1025L187.322 91.6685L224.735 26.8305C224.874 26.5905 224.792 26.2865 224.553 26.1475L180.241 0.436529C180.127 0.370529 179.989 0.354529 179.861 0.385529C179.733 0.420529 179.624 0.504529 179.557 0.619529L144.184 61.9225L144.098 31.4615C144.098 31.2835 144.004 31.1195 143.849 31.0295L104.449 8.11953C104.295 8.02953 104.103 8.02953 103.948 8.11953L97.0248 12.1185C96.8698 12.2075 96.7748 12.3735 96.7748 12.5515L97.1148 132.517L20.5248 88.6755C20.2848 88.5395 19.9818 88.6215 19.8428 88.8595L14.9628 97.3165C14.8968 97.4315 14.8788 97.5685 14.9138 97.6975C14.9478 97.8255 15.0328 97.9345 15.1478 98.0005L96.1258 144.35L0.59082 199.539C0.43682 199.628 0.34082 199.793 0.34082 199.97C0.34082 199.971 0.34082 199.971 0.34082 199.972L0.36382 207.93C0.36482 208.108 0.45882 208.272 0.61182 208.362L35.3158 228.542C35.3938 228.587 35.4808 228.609 35.5678 228.609C35.6538 228.609 35.7408 228.587 35.8178 228.542L54.1578 217.947L16.8898 282.536C16.7528 282.775 16.8338 283.08 17.0718 283.218L61.3838 308.923C61.4618 308.968 61.5478 308.991 61.6348 308.991C61.6778 308.991 61.7218 308.985 61.7638 308.974C61.8928 308.94 62.0018 308.856 62.0678 308.741L97.4408 247.438L97.5268 277.907C97.5278 278.085 97.6228 278.249 97.7758 278.339L137.177 301.248C137.254 301.293 137.341 301.315 137.428 301.315C137.514 301.315 137.601 301.293 137.678 301.248L144.6 297.25C144.755 297.161 144.851 296.995 144.85 296.816L144.497 172.037L218.279 214.268C218.357 214.313 218.442 214.335 218.527 214.335C218.7 214.335 218.868 214.245 218.96 214.085L223.839 205.632C223.906 205.517 223.924 205.381 223.889 205.253C223.855 205.124 223.77 205.014 223.655 204.949L149.82 162.685L239.108 111.106C239.262 111.017 239.358 110.852 239.358 110.674C239.358 110.673 239.357 110.673 239.357 110.673H239.358Z" fill="#231F20"/>
</svg>
