<svg width="26" height="26" viewBox="0 0 26 26" fill="none" xmlns="http://www.w3.org/2000/svg">
<path fill-rule="evenodd" clip-rule="evenodd" d="M19.9569 4.69244C19.1231 4.69244 18.4465 5.37539 18.4465 6.21874C18.4465 7.05891 19.1231 7.74186 19.9569 7.74186C20.7924 7.74186 21.4689 7.05891 21.4689 6.21874C21.4689 5.37539 20.7924 4.69244 19.9569 4.69244Z" fill="black"/>
<path fill-rule="evenodd" clip-rule="evenodd" d="M25.7522 7.76183C25.6903 6.40865 25.4774 5.4843 25.1662 4.67747C24.8453 3.84206 24.4149 3.13371 23.7145 2.42695C23.0141 1.72018 22.3121 1.28659 21.483 0.961004C20.6826 0.648122 19.7677 0.432122 18.4273 0.371769C17.0836 0.309828 16.6548 0.293945 13.2337 0.293945C9.81427 0.293945 9.38545 0.309828 8.0418 0.371769C6.70133 0.432122 5.78651 0.648122 4.98604 0.961004C4.15698 1.28659 3.45498 1.72018 2.75457 2.42695C2.05415 3.13371 1.62374 3.84206 1.30292 4.67747C0.991625 5.4843 0.778801 6.40865 0.71686 7.76183C0.654919 9.11659 0.640625 9.55018 0.640625 12.9998C0.640625 16.4511 0.654919 16.8831 0.71686 18.2394C0.778801 19.591 0.991625 20.5138 1.30292 21.3222C1.62374 22.1576 2.05415 22.8675 2.75457 23.5727C3.45498 24.2795 4.15698 24.7147 4.98604 25.0387C5.78651 25.3531 6.70133 25.5675 8.0418 25.6295C9.38545 25.6914 9.81427 25.7057 13.2337 25.7057C16.6548 25.7057 17.0836 25.6914 18.4273 25.6295C19.7677 25.5675 20.6826 25.3531 21.483 25.0387C22.3121 24.7147 23.0141 24.2795 23.7145 23.5727C24.4149 22.8675 24.8453 22.1576 25.1662 21.3222C25.4774 20.5138 25.6903 19.591 25.7522 18.2394C25.8142 16.8831 25.8284 16.4511 25.8284 12.9998C25.8284 9.55018 25.8142 9.11659 25.7522 7.76183ZM23.4858 18.1346C23.4302 19.3734 23.2237 20.0452 23.0522 20.4947C22.8235 21.0871 22.5503 21.5096 22.1104 21.9559C21.6689 22.399 21.2496 22.6754 20.6619 22.9041C20.2172 23.0804 19.5502 23.2852 18.324 23.3424C16.9963 23.4044 16.5976 23.4155 13.2337 23.4155C9.87145 23.4155 9.4728 23.4044 8.14662 23.3424C6.91733 23.2852 6.25186 23.0804 5.80715 22.9041C5.21951 22.6754 4.80021 22.399 4.36027 21.9559C3.91874 21.5096 3.64557 21.0871 3.41686 20.4947C3.24533 20.0452 3.03886 19.3734 2.98327 18.1346C2.92292 16.7941 2.91021 16.3939 2.91021 12.9998C2.91021 9.60736 2.92292 9.20553 2.98327 7.86506C3.03886 6.62624 3.24533 5.95283 3.41686 5.50653C3.64557 4.91253 3.91874 4.49006 4.36027 4.04536C4.80021 3.60065 5.21951 3.32589 5.80715 3.09559C6.25186 2.92089 6.91733 2.71442 8.14662 2.65724C9.4728 2.59689 9.87145 2.58259 13.2337 2.58259C16.5976 2.58259 16.9947 2.59689 18.324 2.65724C19.5502 2.71442 20.2172 2.92089 20.6619 3.09559C21.2496 3.32589 21.6689 3.60065 22.1104 4.04536C22.5503 4.49006 22.8235 4.91253 23.0522 5.50653C23.2237 5.95283 23.4302 6.62624 23.4858 7.86506C23.5462 9.20553 23.5589 9.60736 23.5589 12.9998C23.5589 16.3939 23.5462 16.7941 23.4858 18.1346Z" fill="black"/>
<path fill-rule="evenodd" clip-rule="evenodd" d="M13.2349 6.47601C9.66293 6.47601 6.76758 9.39678 6.76758 12.9989C6.76758 16.6042 9.66293 19.525 13.2349 19.525C16.8068 19.525 19.7022 16.6042 19.7022 12.9989C19.7022 9.39678 16.8068 6.47601 13.2349 6.47601ZM13.2349 17.2347C10.916 17.2347 9.03717 15.3384 9.03717 12.9989C9.03717 10.661 10.916 8.76466 13.2349 8.76466C15.5521 8.76466 17.4326 10.661 17.4326 12.9989C17.4326 15.3384 15.5521 17.2347 13.2349 17.2347Z" fill="black"/>
</svg>
