<svg width="16" height="17" viewBox="0 0 16 17" fill="none" xmlns="http://www.w3.org/2000/svg">
<path fill-rule="evenodd" clip-rule="evenodd" d="M12.2322 3.26953C11.7072 3.26953 11.2812 3.69953 11.2812 4.23053C11.2812 4.75953 11.7072 5.18953 12.2322 5.18953C12.7582 5.18953 13.1842 4.75953 13.1842 4.23053C13.1842 3.69953 12.7582 3.26953 12.2322 3.26953Z" fill="white"/>
<path fill-rule="evenodd" clip-rule="evenodd" d="M15.8813 5.202C15.8423 4.35 15.7083 3.768 15.5123 3.26C15.3103 2.734 15.0393 2.288 14.5983 1.843C14.1573 1.398 13.7153 1.125 13.1933 0.92C12.6893 0.723 12.1133 0.587 11.2693 0.549C10.4233 0.51 10.1533 0.5 7.99931 0.5C5.84631 0.5 5.57631 0.51 4.73031 0.549C3.88631 0.587 3.31031 0.723 2.80631 0.92C2.28431 1.125 1.84231 1.398 1.40131 1.843C0.960312 2.288 0.689313 2.734 0.487312 3.26C0.291313 3.768 0.157312 4.35 0.118313 5.202C0.0793125 6.055 0.0703125 6.328 0.0703125 8.5C0.0703125 10.673 0.0793125 10.945 0.118313 11.799C0.157312 12.65 0.291313 13.231 0.487312 13.74C0.689313 14.266 0.960312 14.713 1.40131 15.157C1.84231 15.602 2.28431 15.876 2.80631 16.08C3.31031 16.278 3.88631 16.413 4.73031 16.452C5.57631 16.491 5.84631 16.5 7.99931 16.5C10.1533 16.5 10.4233 16.491 11.2693 16.452C12.1133 16.413 12.6893 16.278 13.1933 16.08C13.7153 15.876 14.1573 15.602 14.5983 15.157C15.0393 14.713 15.3103 14.266 15.5123 13.74C15.7083 13.231 15.8423 12.65 15.8813 11.799C15.9203 10.945 15.9293 10.673 15.9293 8.5C15.9293 6.328 15.9203 6.055 15.8813 5.202ZM14.4543 11.733C14.4193 12.513 14.2893 12.936 14.1813 13.219C14.0373 13.592 13.8653 13.858 13.5883 14.139C13.3103 14.418 13.0463 14.592 12.6763 14.736C12.3963 14.847 11.9763 14.976 11.2043 15.012C10.3683 15.051 10.1173 15.058 7.99931 15.058C5.88231 15.058 5.63131 15.051 4.79631 15.012C4.02231 14.976 3.60331 14.847 3.32331 14.736C2.95331 14.592 2.68931 14.418 2.41231 14.139C2.13431 13.858 1.96231 13.592 1.81831 13.219C1.71031 12.936 1.58031 12.513 1.54531 11.733C1.50731 10.889 1.49931 10.637 1.49931 8.5C1.49931 6.364 1.50731 6.111 1.54531 5.267C1.58031 4.487 1.71031 4.063 1.81831 3.782C1.96231 3.408 2.13431 3.142 2.41231 2.862C2.68931 2.582 2.95331 2.409 3.32331 2.264C3.60331 2.154 4.02231 2.024 4.79631 1.988C5.63131 1.95 5.88231 1.941 7.99931 1.941C10.1173 1.941 10.3673 1.95 11.2043 1.988C11.9763 2.024 12.3963 2.154 12.6763 2.264C13.0463 2.409 13.3103 2.582 13.5883 2.862C13.8653 3.142 14.0373 3.408 14.1813 3.782C14.2893 4.063 14.4193 4.487 14.4543 5.267C14.4923 6.111 14.5003 6.364 14.5003 8.5C14.5003 10.637 14.4923 10.889 14.4543 11.733Z" fill="white"/>
<path fill-rule="evenodd" clip-rule="evenodd" d="M7.99973 4.39209C5.75073 4.39209 3.92773 6.23109 3.92773 8.49909C3.92773 10.7691 5.75073 12.6081 7.99973 12.6081C10.2487 12.6081 12.0717 10.7691 12.0717 8.49909C12.0717 6.23109 10.2487 4.39209 7.99973 4.39209ZM7.99973 11.1661C6.53973 11.1661 5.35673 9.97209 5.35673 8.49909C5.35673 7.02709 6.53973 5.83309 7.99973 5.83309C9.45873 5.83309 10.6427 7.02709 10.6427 8.49909C10.6427 9.97209 9.45873 11.1661 7.99973 11.1661Z" fill="white"/>
</svg>
