<svg width="26" height="26" viewBox="0 0 26 26" fill="none" xmlns="http://www.w3.org/2000/svg">
<path fill-rule="evenodd" clip-rule="evenodd" d="M5.32389 8.23482H7.17736C7.65065 8.23482 7.82853 8.44287 8.00642 8.95588C8.9133 11.5955 10.4412 13.9016 11.0701 13.9016C11.3052 13.9016 11.4132 13.7936 11.4132 13.1965V10.4663C11.3703 9.68964 11.0987 9.35452 10.8986 9.10676C10.7747 8.95111 10.6778 8.83199 10.6778 8.66205C10.6778 8.45399 10.8541 8.23482 11.1479 8.23482H14.0608C14.4547 8.23482 14.5912 8.44605 14.5912 8.91617V12.5866C14.5912 12.9789 14.7612 13.1171 14.8787 13.1171C15.1154 13.1171 15.3107 12.9789 15.7427 12.5485C17.0784 11.0555 18.0202 8.75893 18.0202 8.75893C18.1378 8.48417 18.3554 8.23482 18.8271 8.23482H20.6805C21.2412 8.23482 21.3587 8.52388 21.2412 8.91617C21.0045 9.99617 18.7477 13.1758 18.7477 13.1758C18.5507 13.4903 18.4729 13.6475 18.7477 14.0001C18.8445 14.1367 19.051 14.3384 19.2877 14.5687C19.5307 14.8085 19.8038 15.0769 20.023 15.3358C20.8203 16.23 21.4191 16.986 21.5874 17.5069C21.7399 18.0295 21.4747 18.2947 20.9442 18.2947H19.0923C18.5952 18.2947 18.3458 18.0152 17.8058 17.4148C17.5755 17.1607 17.2944 16.8478 16.9212 16.473C15.8221 15.4152 15.3504 15.2771 15.0757 15.2771C14.7024 15.2771 14.5912 15.3819 14.5912 15.9123V17.5736C14.5912 18.0295 14.4451 18.2947 13.2667 18.2947C11.3036 18.2947 9.14518 17.1019 7.61412 14.9038C5.31595 11.6845 4.68859 9.25129 4.68859 8.75893C4.68859 8.48417 4.795 8.23482 5.32389 8.23482ZM2.07753 2.07723C0.293945 3.86082 0.293945 6.73076 0.293945 12.4706V13.53C0.293945 19.2683 0.293945 22.1398 2.07753 23.9234C3.86112 25.7054 6.73106 25.7054 12.4709 25.7054H13.5303C19.2702 25.7054 22.1401 25.7054 23.9221 23.9234C25.7057 22.1398 25.7057 19.2683 25.7057 13.53V12.4706C25.7057 6.73076 25.7057 3.86082 23.9221 2.07723C22.1401 0.29364 19.2702 0.29364 13.5303 0.29364H12.4709C6.73106 0.29364 3.86112 0.29364 2.07753 2.07723Z" fill="black"/>
</svg>
